<?xml version="1.0" encoding="UTF-8"?>
<!DOCTYPE svg PUBLIC "-//W3C//DTD SVG 1.0//EN" "http://www.w3.org/TR/2001/REC-SVG-20010904/DTD/svg10.dtd">
<!-- Creator: CorelDRAW 2020 (64-Bit) -->
<svg xmlns="http://www.w3.org/2000/svg" xml:space="preserve" width="42.5847mm" height="50.11mm" version="1.0" style="shape-rendering:geometricPrecision; text-rendering:geometricPrecision; image-rendering:optimizeQuality; fill-rule:evenodd; clip-rule:evenodd"
viewBox="0 0 79.1 93.08"
 xmlns:xlink="http://www.w3.org/1999/xlink"
 xmlns:xodm="http://www.corel.com/coreldraw/odm/2003"
 xmlns:mapsvg="http://mapsvg.com"
 xmlns:dc="http://purl.org/dc/elements/1.1/"
 xmlns:rdf="http://www.w3.org/1999/02/22-rdf-syntax-ns#"
 xmlns:svg="http://www.w3.org/2000/svg"
 mapsvg:geoViewBox="123.658963 45.523885 145.820743 24.217586">
 <defs>
  <style type="text/css">
   <![CDATA[
    .str0 {stroke:white;stroke-width:0.26;stroke-miterlimit:22.9256}
    .str1 {stroke:black;stroke-width:0.37;stroke-miterlimit:22.9256}
    .fil0 {fill:none;fill-rule:nonzero}
    .fil1 {fill:black}
   ]]>
  </style>
 </defs>
 <g id="Capa_x0020_1">
  <metadata id="CorelCorpID_0Corel-Layer"/>
  <g id="japan.svg">
   <path id="JP-23" class="fil0 str0" d="M47.11 50.1l-0.03 -0.06 0.09 -0.32 -0.15 -0.25 0.02 -0.26 0.08 -0.25 -0.04 -0.06 -0.16 0.06 -0.21 -0.06 0 0 -0.17 -0.28 -0.06 -0.22 0 0 0.04 -0.39 0.3 -0.53 0.23 0.03 0.3 -0.09 0.27 -0.2 -0 0.1 0.21 0.16 -0.01 0.12 0.09 0.04 -0.02 0.09 0.05 0.06 0.06 0.03 0.05 -0.04 0.17 0.07 0.09 0.13 0.15 -0.03 0.17 -0.13 0.11 -0 0.13 0.08 -0.01 0.04 0.15 0.01 -0 0.06 0.18 0.09 0.31 -0.25 0.14 -0.01 0 0 -0.06 0.15 0.12 0.15 -0 0.09 0.23 -0.05 0.15 -0.1 0.28 0.05 0.04 0.07 0.15 -0.05 0 0 -0.06 0.18 0.09 0.09 -0.1 0.1 0.01 0.08 -0.08 0.04 -0.26 0.36 -0.01 0.19 -0.23 0.35 -0.49 0.28 -0.08 0.22 0.03 0.42 0 0 -0.61 0.14 -0.62 0.22 -0.37 0.05 -0.05 -0.04 0.14 -0.31 0.09 0.01 0.04 0.1 0.42 -0.18 0.15 -0.1 -0.02 -0.08 0.08 -0.06 0.09 0.03 0.04 -0.03 0.04 -0.21 -0.1 -0.13 -0.3 -0.06 -0.09 0.08 -0.04 0.17 -0.15 -0.1 -0.38 0.04 -0.26 -0.25 0.06 -0.19 -0.08 -0.03 -0.08 0.11 -0.05 0.4 0.18 0.17 0.03 0.16 -0.3 -0.11 -0.14 -0.13 -0 0z" title="Aichi"/>
   <path id="JP-05" class="fil0 str0" d="M58.49 28.06l-0.12 -0.49 -0.25 -0.29 0.09 -0.15 0.13 0.04 0.11 0.16 0.03 -0.21 -0.05 -0.07 0.07 -0.11 0.03 -0.25 -0.06 -0.25 -0.19 -0.08 -0.08 0.08 -0.1 0.15 -0.11 0.37 0.1 0.08 -0.01 0.23 -0.14 -0.05 -0.16 0.03 -0.03 0.04 0.03 0.15 -0.38 -0.02 -0.17 -0.33 -0.04 -0.23 0.03 -0.13 0.35 0.24 0.12 -0.04 0.27 -0.26 0.16 -0.28 0.14 -0.43 0.11 -0.54 0.01 -0.3 -0.31 -0.33 0 0 0.09 -0.02 0.2 0.06 0.05 -0.16 0.14 -0.06 0.1 0.06 0.04 0.09 0.27 -0.02 0.15 0.05 0.24 -0.07 0.15 0.03 0.09 -0.18 0.24 -0.02 0.05 0.15 0.14 0 0.21 0.21 0.18 -0.15 0.22 0.15 0.14 -0.11 0.14 -0.01 0.13 -0.11 0.13 0.02 0.04 -0.19 0.22 -0.09 -0.03 0.42 0.38 -0.04 0.05 0.33 -0.07 0.05 -0.09 0.22 0.03 0.24 0 0 -0.07 0.1 -0.11 0.04 -0.15 0.2 0.07 0.09 -0.03 0.28 -0.09 0.08 -0.01 0.48 0.11 0.45 -0.1 0.03 -0.09 -0.09 -0.15 0.08 0.01 0.19 0.2 0.12 -0.15 0.26 -0.07 0.03 0.12 0.21 0.02 0.19 -0.09 0.21 -0.05 -0.01 -0.11 0.15 -0.08 0.02 0.04 0.13 -0.08 0.24 -0.14 0.15 0.01 0.15 -0.08 0.02 -0.01 0.12 0.07 0.02 0.11 0.22 -0.03 0.17 0.1 0.13 0.2 0.14 -0.06 0.19 0.15 0.08 -0.11 0.05 -0.08 0.15 0.05 0.04 -0.05 0.17 0.17 0.07 0.03 0.07 -0.14 0.25 0.01 0.21 0 0 -0.13 0.03 -0.29 0.28 -0.32 0.06 -0.05 -0.03 0 0 -0.04 -0.08 -0.27 -0.1 -0.1 -0.32 -0.19 -0.01 -0.06 -0.14 -0.19 0.05 -0.55 -0.17 -0.14 -0.13 -0.13 -0.03 -0.04 -0.21 -0.18 0.04 -0.07 0.08 -0.45 -0.07 0 0 0.12 -0.26 -0.04 -0.17 0.07 -0.14 -0.01 -0.1 0.07 -0.11 0.13 -0.02 0.17 -0.43 0.14 -0.75 0.01 -0.74 0 0z" title="Akita"/>
   <path id="JP-02" class="fil0 str0" d="M62.3 22.71l0.17 -0.15 0.1 -0.19 0.1 -0.33 0.04 -0.44 0.11 -0.21 -0.13 -0.37 -0.15 -0.19 -0.14 -0.01 -0.15 0.29 -0.2 0.15 -0.27 -0.08 -0.12 0.12 -0.33 0.06 -0.15 0.16 -0.17 -0.08 0.12 -0.83 0.08 -0.12 0.06 -0.33 0.26 -0.37 -0.04 -0.15 0.05 -0.1 0.31 0.28 0.24 0.02 0.16 0.09 0.28 0.35 0.26 0.15 0.16 0.02 0.18 -0.07 0.37 -0.3 -0.27 1.23 -0.02 0.92 0.1 1 0.25 0.87 0.21 0.2 0.12 -0.07 0.04 0.1 0.34 0.34 0 0 -0.08 0.1 -0.25 0.11 -0.02 0.15 -0.16 0.12 -0.22 -0.14 -0.12 0.02 -0.31 0.2 -0.12 -0.19 -0.35 0.27 -0.27 0.07 -0.13 0.09 -0.01 0.13 -0.08 0 -0.18 0.14 -0.17 -0 -0.08 -0.12 0 0 -0.03 -0.24 0.09 -0.22 0.07 -0.05 -0.05 -0.33 -0.38 0.04 0.03 -0.42 -0.22 0.09 -0.04 0.19 -0.13 -0.02 -0.13 0.11 -0.14 0.01 -0.14 0.11 -0.22 -0.15 -0.18 0.15 -0.21 -0.21 -0.14 0 -0.05 -0.15 -0.24 0.02 -0.09 0.18 -0.15 -0.03 -0.24 0.07 -0.15 -0.05 -0.27 0.02 -0.04 -0.09 -0.1 -0.06 -0.14 0.06 -0.05 0.16 -0.2 -0.06 -0.09 0.02 0 0 0.05 -0.32 -0.03 -0.26 -0.08 -0.15 -0.17 0.01 -0.03 -0.15 0.32 -0.26 0.18 -0.32 0.12 -0.08 0.11 -0.04 0.22 0.12 0.26 -0.19 0.15 -0.02 0.08 -0.11 0.18 -0.65 0.01 -0.68 -0.12 -0.13 -0.13 -0.01 0.03 -0.07 0.16 0.04 0.07 -0.08 0.07 -0.53 0.2 0.12 0.12 0.18 0.11 0.06 0.12 -0.03 0.18 -0.18 0.2 0.07 0.12 0.13 -0.02 0.41 0.07 0.45 0.13 0.59 0.17 0.21 0.24 -0.02 0.21 -0.23 0.04 -0.1 -0.04 -0.22 0.06 -0.26 0.27 0.1 0.12 0.17 -0.03 0.1 0.13 -0 0.17 0.08 0.1 0.16 0.14 0.04 0 0z" title="Aomori"/>
   <path id="JP-12" class="fil0 str0" d="M57.71 47.44l0.03 -0.04 0.17 0.08 0.07 -0.08 -0.05 -0.13 0.02 -0.1 0.24 -0.07 -0.02 -0.09 0.05 -0.02 0.04 0.07 0.27 -0.39 0.1 0.08 0.04 -0.06 -0.1 -0.23 -0.14 -0.15 -0.22 -0.21 -0.12 0.05 -0.06 -0.14 0 0 -0.19 -0.41 0 0 0.06 -0.05 0.04 -0.24 -0.3 -0.58 -0.01 -0.19 -0.13 -0.25 0 0 0.08 0.01 0.06 0.15 0.29 0.36 0.13 0.04 0.04 0.13 0.19 0.13 0.44 0.15 0.1 0.13 0.18 -0.07 0.15 0.02 0.11 -0.07 0.14 0.04 0.15 -0.15 0.36 -0.09 0.19 0.09 0.16 -0.01 0.2 0.17 0.22 0.05 0.2 0.28 0.45 0.28 0 0 -0.02 0.12 -0.14 -0.09 -0.27 0.09 -0.14 -0.04 -0.14 0.03 -0.49 0.37 -0.25 0.28 -0.2 0.39 -0.05 0.42 0.08 0.22 -0.11 0.51 -0.12 0.03 -0.08 0.18 -0.05 0.02 -0.39 0.11 -0.04 -0.08 -0.23 0.03 -0.15 0.2 -0.35 0.24 -0.09 0.22 0.02 0.1 -0.08 0.11 -0.19 0.08 -0.21 -0.04 -0.03 -0.13 -0.24 -0.12 0.01 -0.05 0.14 0.02 0.22 -0.1 -0.14 -0.3 0.08 -0.09 -0.06 -0.06 0.05 -0.13 -0.07 -0.1 0 -0.15 0.17 -0.13 0.01 -0.09 -0.08 -0.13 0.01 -0.07 -0.13 -0.08 0.1 -0.26 0 0z" title="Chiba"/>
   <path id="JP-38" class="fil0 str0" d="M31.61 56.38l0.04 -0.08 0.06 -0.05 0.06 0.01 0 -0.04 -0.05 -0.02 -0.07 -0.03 -0.08 0.03 -0.05 0.04 -0.08 -0.04 -0.04 0.07 -0.07 -0.02 -0.03 -0.04 -0.08 0 0.02 -0.08 0.03 -0.02 0.03 -0.02 0.06 -0.02 -0.01 -0.03 -0.01 -0.04 -0.05 0.01 -0.04 -0.07 0.06 -0.05 -0.01 -0.06 -0.05 -0.01 0.06 -0.06 0.03 -0.01 0.04 -0.05 0.02 -0.08 -0.04 0.02 -0.07 -0.01 0.03 -0.07 -0.09 0.02 -0.06 -0.06 -0.04 0.01 -0.06 0.05 -0.15 0.11 -0.09 0.03 -0.06 0.07 -0.2 0.06 -0.1 0.1 -0.03 0.06 -0.06 0.05 -0.09 0.01 -0.01 -0.04 0.06 -0.04 0 -0.03 -0.09 0 -0.15 0.13 -0.09 0.06 -0.04 0 0.39 -0.33 0.09 -0.05 0.12 -0.06 0.1 0.01 0.06 -0.06 0.06 -0.03 0.08 -0.01 0.04 -0.03 0.02 -0.03 0.21 -0.09 0.15 -0.12 0.13 -0.07 0.04 -0.09 0.15 -0.18 0.11 -0.08 0.28 -0.1 0.22 -0.16 0.04 -0.04 0.07 -0.18 0.08 -0.07 -0.04 -0.13 -0 -0.18 0.04 -0.19 0.04 -0.12 0.08 0.03 0.08 -0.05 0.06 -0.22 0.01 -0.11 0.32 -0.3 0.2 -0.03 -0.01 -0.08 0.05 -0.03 -0.03 -0.1 0.06 -0.11 0.13 0.16 0.18 0.25 0.13 0.27 0.07 0.11 0.02 0.08 0.09 0.06 0.17 -0.06 0.25 -0.06 0.07 -0.02 -0.02 -0.08 0.22 -0.04 0.04 -0.05 0.07 0.01 0.07 0.06 0.13 -0.05 0.12 0.02 0.09 0.02 0.13 0.06 0.09 -0.01 0.12 -0.09 0.04 -0.06 0.03 -0.08 0.03 -0.01 0.07 -0.05 0 0 0.06 0.05 0.17 0.02 0.11 0.06 0 0 -0.05 0.12 0.05 0.09 0 0.19 -0.04 0.11 -0.06 0.05 0 0 -0.07 0 -0.12 -0 -0.08 0.06 -0.09 -0.06 -0.04 0.01 -0.1 0.14 -0.04 0.05 -0.04 0.03 -0.37 0.01 -0.14 -0.02 -0.26 0 -0.04 0.03 -0.04 0.13 -0.03 0.02 -0.09 0.03 -0.06 -0.06 -0.04 0 -0.05 0.12 -0.07 0.14 -0.07 0.07 -0.06 0.09 -0.01 0.1 -0.04 0.05 -0.11 0.02 -0.03 0.12 -0.04 0.13 -0.03 0.08 0.05 0.05 0.01 0.09 -0.06 0.05 -0.1 0.16 -0 0.05 -0.22 0.06 -0.04 -0.02 -0.12 0.01 -0.23 -0.04 -0.07 0.02 -0.06 0.05 0.06 0.06 0.03 0.17 0.03 0.04 0.04 0 0.04 0.13 0.08 0.03 0.05 0.06 0.01 0.1 -0.01 0.04 -0.14 0.08 -0.22 0.08 -0.06 0.09 -0.03 0.21 -0.08 0.01 -0.03 0.03 -0.03 0.08 -0.13 0.16 -0.03 0.01 -0.17 -0.17 -0.02 -0.05 -0.04 0.01 -0.03 0.05 0.05 0.11 -0.01 0.05 0.08 0.09 0.04 0.01 0.02 0.05 -0.04 0.17 0.05 0.06 0.04 0.17 -0 0.24 -0.07 0.02 -0.01 0.07 0 0 -0.06 -0.02 -0.17 0.06 -0.03 -0.05 -0.04 -0.06 -0.02 -0.03 -0.08 0.03 -0.03 0.02 -0.05 0.01 -0 0.05 0 0.02 -0.03 0.05 -0.06 -0.01 -0.05 0 -0.04 -0.01 0.01 -0.07 -0.06 -0.07 0.02 -0.02 0.06 -0.01 0.06 -0.05 -0.11 -0.06 0.05 -0.04 0.04 0.03 0.03 0.01 0.03 -0.02 -0.04 -0.07 0.02 -0.05 -0.05 -0.03 -0.02 -0.01 -0 -0.15 -0.05 -0.01 -0.06 0.06 -0.08 -0.04 -0.07 0.03 -0.02 0.01 -0.02 0.04 -0.01 0.05 -0.06 -0.03 0.06 -0.07 0 -0.07 0.03 -0.06 0.04 -0.01 0.04 0.02 0.03 0.06 0.06 -0.01 0.1 -0.04 0.02 -0.05 -0.05 -0.02 0.04 -0.07 0.07 -0.11 -0 -0.06 -0.07 -0.02 -0.03 0 -0.04 0.01 -0.03 0.02 -0.04 -0.03 0.01 -0.04 -0.06 -0.03 0.03 -0.06 0.05 -0.06 -0.09 -0.1 0.09 0.04 0.12 0.06 0.05 0.06 0.06 0 -0.01 -0.07 -0.04 -0.07 0.06 -0.05 0.1 0.01 0.04 -0.01 0.02 -0.03 -0.03 -0.06 -0.05 0.01 -0.07 -0.06 0.07 -0.04 0.01 -0.06 -0.14 0.01 -0.09 -0.03 -0 0z" title="Ehime"/>
   <path id="JP-18" class="fil0 str0" d="M43.16 46.55l0.21 0.13 0.01 0.07 0.06 -0.01 0.08 -0.05 -0.12 -0.15 0.04 -0.02 0.1 0.06 0.07 -0.12 -0.1 -0.08 -0.04 -0.15 0.11 0.03 0.08 0.12 0.14 -0.07 0.03 0.06 0.22 -0.06 0.04 -0.08 -0.04 -0.06 0.01 -0.17 -0.08 -0.12 0.22 -0.18 0.07 0.11 -0.04 0.26 0.06 0.1 0.11 -0.02 0.09 -0.27 0 -0.23 -0.1 -0.2 -0.27 -0.27 0.01 -0.2 -0.14 -0.21 0.19 -0.23 0.06 -0.27 0.38 -0.56 -0.04 -0.12 0.15 0 0.28 -0.2 0 0 0.3 0.29 0.04 0.22 0.07 0.07 0.16 -0.02 0.12 0.14 0.08 0.01 0.31 -0.08 0.33 0.26 0.04 0.11 0.34 -0.09 0 0 0.04 0.09 -0.09 0.07 -0.05 0.25 0.09 0.07 -0.01 0.1 0.14 0.05 -0.02 0.09 0.12 0.1 0.05 0.22 -0.11 0.08 -0.03 0.14 -0.24 -0 -0.2 0.09 -0.08 -0.09 -0.08 0.08 -0.09 -0.03 -0.09 0.08 -0.15 -0.04 -0.1 0.14 -0.05 -0.09 -0.19 0 -0.21 -0.08 -0.16 0.09 -0 0.17 -0.18 0.29 0 0 -0.33 -0.17 -0.12 0.02 -0.06 0.12 0.15 0.32 -0.02 0.13 -0.2 -0.06 -0.06 0.19 -0.23 0.02 -0.08 0.16 -0.08 0.02 -0.14 -0.14 -0.19 0.5 -0.1 0.05 -0.06 -0.07 -0.12 -0 -0.01 0.09 -0.07 0.02 -0.08 0.13 0 0 -0.25 0.05 -0.27 -0.11 -0.31 -0.03 -0.02 -0.16 -0.24 -0.22 0.05 -0.18 -0.09 -0.08 0.07 -0.16 0 0 0.16 0.03 -0.04 0.2 0.03 0.04 0.46 0.07 0.32 -0.07 0.05 -0.16 -0.12 0.05 -0.01 -0.09 -0.1 -0.02 0.09 -0.11 0.07 -0.01 -0 0z" title="Fukui"/>
   <path id="JP-40" class="fil0 str0" d="M24.24 54.63l0.22 -0.24 0.03 -0.11 -0.02 -0.06 -0.06 0 -0.01 -0.12 0.1 -0.01 0.04 -0.15 0.15 -0.09 -0.01 -0.07 0.14 -0.01 0.04 0.05 0.19 -0.02 0.12 -0.07 0.13 -0.17 0.2 0.08 0.08 -0.06 0.32 0.07 0.08 0.1 0.13 -0.05 0.06 -0.14 0.21 -0.14 0.07 0.06 -0.13 0.24 0.03 0.17 -0.14 0.13 0.04 0.08 0.12 -0.02 0.1 0.46 0.25 0.38 0.1 -0.05 0.19 0.14 0 0 -0.03 0.07 0.05 0.14 -0.07 0.09 0.02 0.08 -0.34 0.02 -0.17 -0.05 -0.17 0.04 -0.29 0.25 -0.05 0.3 -0.09 0.02 -0.08 0.12 0.05 0.03 0.05 0.17 -0.03 0.12 -0.09 0.05 -0.02 0.07 0.06 0.03 -0.01 0.11 0.15 0.13 -0.09 0.25 -0.06 0.04 0 0 -0.28 -0.09 -0.12 -0.11 -0.15 0.01 -0.03 -0.07 -0.1 0.26 -0.27 -0.03 -0.29 0.27 0.03 0.19 -0.39 -0.01 0 0 0.09 -0.2 -0.06 -0.14 -0.13 -0.14 0.01 -0.07 -0.07 -0.03 0 0 0.03 -0.22 0.11 -0.19 0.33 -0.26 0.09 -0.15 0.09 0.01 0 -0.4 -0.07 -0.04 -0.13 0.04 -0.18 0.17 -0.11 -0.13 -0.14 -0.03 -0.31 -0.19 -0.09 0.04 -0.15 -0.04 -0.12 0.06 -0.47 -0.01 0 0 0.03 -0.12 0.29 -0.06 0.1 -0.12 0.03 -0.1 -0.08 0.05 -0.03 -0.08 -0.05 -0.03 -0.08 0.04 -0.04 -0.07 0.21 -0.06 0.05 -0.07 -0.02 -0.07 0.15 -0.05 0.03 -0.11 0.11 0.07 -0.04 0.07 0.03 0.08 0.15 0.03 0.02 0.13 0.09 -0.01 0.03 -0.06 0.12 0.01 0.19 -0.09 0.02 -0.15 0.1 -0.04 -0.01 -0.11 -0.11 -0.01 -0 0z" title="Fukuoka"/>
   <path id="JP-07" class="fil0 str0" d="M61.72 40.36l-0.11 0.15 -0.45 0.21 -0.07 0.12 0.01 0.09 0 0 -0.62 -0.19 -0.1 -0.19 -0.06 0.08 0.08 0.23 -0.2 0.09 -0.26 0.25 -0.08 -0.1 -0.21 -0.08 -0.06 -0.21 -0.15 -0.04 -0.14 -0.18 -0.1 -0.01 0 0 -0.06 -0.06 0.03 -0.33 -0.15 0.01 -0.04 -0.17 -0.18 -0.18 -0.43 -0.18 -0.43 -0.05 -0.24 0.11 -0.03 0.16 -0.5 0.16 -0.05 0.08 -0.14 0.03 -0.04 0.08 -0.11 0.02 -0.17 0.13 -0.24 0.04 -0.13 0.18 -0.17 0.08 0 0 -0.41 -0.13 -0.09 0.04 -0 -0.07 0 0 0.04 -0.08 -0.02 -0.24 0.04 -0.14 -0.08 -0.25 0.06 -0.23 -0.08 -0.17 -0.12 -0.03 -0.11 -0.14 0.17 -0.25 0.04 -0.21 0.03 -0.21 -0.12 -0.1 0.1 -0.17 0.39 -0.04 0.1 -0.05 0.12 0.04 0.06 -0.21 0.07 -0.03 0.08 -0.01 0.07 0.06 0.07 -0.04 0.23 0.04 0.09 -0.04 -0.07 -0.15 0.02 -0.15 -0.08 -0.19 0.01 -0.13 0.28 -0.19 -0.02 -0.04 0.13 -0.23 0.28 -0.31 0 0 0.14 -0.03 0.11 0.12 0.17 -0.1 0.11 0.07 0.11 -0.01 0.06 -0.06 0.17 0.3 0.22 -0.08 0.26 0.2 0.13 -0.1 0.23 0.05 0.24 -0.29 -0.1 -0.07 -0.01 -0.36 0.05 -0.31 0 0 0.25 0.12 0.2 -0.1 0.21 0.12 0.07 0.2 0.48 -0.05 0.15 0.05 0.1 0.08 -0.03 0.21 0.05 0.13 0.11 0.09 0.22 0.05 0.03 -0.03 -0.08 -0.07 0.28 0.01 0.02 -0.04 -0.01 -0.39 0.13 -0.05 0.12 0.03 0 0 0.07 0.23 0.13 0.08 0.01 0.23 0.08 0.14 0.1 1.08 0 0.6 -0.25 1.68 0 0zm-0.62 0.57l0 0 0.01 0 -0.01 -0z" title="Fukushima"/>
   <path id="JP-21" class="fil0 str0" d="M45.58 48.1l-0.13 -0.12 0.06 -0.04 0 -0.17 0.06 -0.09 0.01 -0.24 0.1 -0.08 -0.1 -0.15 0.02 -0.18 -0.11 -0.12 0.04 -0.16 -0.1 -0.13 -0.06 0.09 -0.14 -0.05 0.02 -0.29 -0.12 -0.01 -0.05 -0.19 0 0 0.18 -0.3 0 -0.17 0.16 -0.09 0.21 0.08 0.19 -0 0.05 0.09 0.1 -0.14 0.15 0.04 0.09 -0.08 0.09 0.03 0.08 -0.08 0.07 0.09 0.2 -0.09 0.24 0 0.03 -0.14 0.11 -0.08 -0.05 -0.22 -0.12 -0.09 0.02 -0.09 -0.14 -0.05 0.01 -0.1 -0.09 -0.07 0.04 -0.25 0.09 -0.07 -0.04 -0.09 0 0 0.09 -0.2 -0.04 -0.13 0.11 -0.04 0.17 -0.3 -0.01 -0.07 -0.14 -0.08 -0.04 -0.1 0 0 0.1 -0.01 0.05 -0.19 0.14 -0.1 0.04 0.11 0.06 -0.06 0.17 0.09 0.06 0.14 -0.05 0.13 0.06 0.01 0.25 -0.22 0.04 -0.21 0.37 -0.36 0.1 -0 0.05 0.08 0.26 -0.12 0.11 0.01 0.01 0.16 0.04 0.01 0.24 -0.14 0.05 0.14 0.2 0.06 0.13 -0.06 0.15 0.15 0.17 0.01 0 0 0.02 0.09 0.19 0.12 0.02 0.1 -0.02 0.14 -0.25 0.33 0.07 0.1 -0.01 0.09 -0.14 0.13 -0 0.15 0.08 0.09 0.13 0.04 -0.07 0.28 -0.18 0.14 -0.07 0.17 -0.08 0.02 -0.09 0.19 -0.08 0.01 -0.06 -0.06 -0.21 0.06 -0.06 0.19 -0.11 0.04 -0.02 0.1 0.05 0.07 0.19 0 0.01 0.09 0.22 0.07 0.14 0.32 0.14 0.13 -0.08 0.23 0.07 0.08 -0.01 0.2 0.06 0.1 0.19 -0.06 0.1 0.1 0 0.16 -0.12 0.13 0.13 0.18 -0.16 0.05 0.05 0.23 -0.15 0.12 0 0.1 0 0 -0.14 0.01 -0.31 0.25 -0.18 -0.09 0 -0.06 -0.15 -0.01 0.01 -0.04 -0.13 -0.09 -0.11 0 -0.17 0.13 -0.15 0.03 -0.09 -0.13 -0.17 -0.07 -0.05 0.04 -0.06 -0.03 -0.05 -0.06 0.02 -0.09 -0.09 -0.04 0.01 -0.12 -0.21 -0.16 0 -0.1 -0.27 0.2 -0.3 0.09 -0.23 -0.03 -0.3 0.54 -0.04 0.39 0 0 -0.19 -0.02 -0.3 -0.45 -0.4 0.17z" title="Gifu"/>
   <path id="JP-10" class="fil0 str0" d="M57.09 43.74l-0.06 0.1 -0.09 0.03 -0.09 -0.09 -0.46 0.09 -0.33 -0.24 -0.15 0.04 -0.17 -0.05 -0.11 0.03 -0.3 -0.15 -0.13 -0.01 -0.22 0.35 -0 0.17 -0.08 0.14 -0.28 0.01 -0.08 0.14 -0.27 0.07 -0.17 0.18 -0.22 0 -0.14 0.18 0 0 -0.06 0.02 -0.06 -0.09 -0.11 -0.03 -0.07 -0.32 0.06 -0.06 -0.05 -0.12 -0.12 -0.01 -0.08 -0.14 0.03 -0.03 0.08 0.06 0.08 -0.09 0.01 -0.15 -0.08 -0.08 -0.04 -0.2 0.19 -0.12 0.01 -0.27 -0.05 -0.21 -0.15 -0.04 -0.13 0.02 -0.08 0.07 -0.16 -0.04 -0.04 0.06 -0.08 -0.01 -0.22 -0.13 -0.01 -0.23 0.11 -0.3 -0 -0.18 0.17 -0.21 0.17 -0.03 0 -0.2 0.32 -0.06 0.28 -0.15 0 0 0.05 0.03 0.06 -0.11 0.22 0.08 0.14 -0.12 -0.02 -0.18 0.12 0.01 0.27 -0.11 -0.04 -0.08 0.05 -0.17 0.15 0.02 0.02 -0.05 -0.05 -0.35 0.3 -0.05 0.15 -0.13 0.02 -0.17 0.28 0.28 0.02 0.14 0.17 0.01 0.04 0.06 0 0 0 0.07 0.09 -0.04 0.41 0.13 0 0 -0.1 0.28 0.18 0.08 -0.18 0.25 0.05 0.21 -0.11 0.16 -0.03 0.25 0.26 0.13 0.22 -0.01 0.06 0.12 -0.15 0.12 -0.07 0.22 0.06 0.14 -0.21 0.28 -0.03 0.17 0.19 0.14 -0.01 0.1 0.2 0.17 0.18 -0.05 0.13 0.08 0.2 -0.03 0.07 0.04 -0.02 0.05 0.09 0.14z" title="Gunma"/>
   <path id="JP-28" class="fil0 str0" d="M38.65 50.04l-0.2 0.16 -0.22 -0.04 0 0 -0.1 -0.25 -0.19 -0.17 -0.03 -0.08 0.13 -0.24 -0.12 -0.15 0.06 -0.06 0.03 -0.16 -0.04 -0.11 0.17 -0.1 0.01 -0.17 0.11 -0.04 0.04 -0.2 0.04 -0.05 0.12 0.01 0.01 -0.14 -0.11 -0.12 0.08 -0.14 0 0 0.1 0.05 0.3 -0.21 -0.05 -0.21 0.03 -0.08 -0.13 -0.17 0.02 -0.19 -0.13 -0.06 -0.09 -0.34 0.02 -0.18 -0.07 -0.14 -0.12 -0.09 0 0 0.38 -0.12 0.22 -0.13 0.22 0.06 0.08 0.08 0.15 -0.12 0.25 0.04 0.23 -0.05 0.08 0.06 0.18 -0.01 0 0 0 0.36 0.15 0.14 0.04 0.11 0.13 0.03 0.24 -0.12 0.06 0.1 0 0.47 -0.16 0.09 -0.21 -0.1 -0.07 0.18 0 0.23 0.27 0.11 0.24 0.2 0.14 -0.08 0.18 0 0 0.14 0.15 0.15 -0.04 0.1 0.1 0.04 0.08 -0.06 0.15 0.01 0.04 0.01 0.01 0.13 0.15 -0.03 0.17 0.09 0.05 0.23 -0.07 0.04 -0.03 0.1 0 0 -0.08 -0.01 -0.05 0.06 0.07 0.04 0.01 0.17 -0.04 0.06 0.25 0.15 0.17 0.03 -0.16 0.09 0.08 0.04 -0.08 0.37 0.13 0.22 0.03 0.26 -0.1 0.22 0 0 -0.08 -0.06 0.03 -0.08 -0.04 -0.09 -0.17 0.06 -0.08 -0.11 -0.17 -0.02 -0.36 0.17 -0.02 0.12 -0.46 0.12 -0.77 -0.31 -0.3 -0.3 -1.03 0.01 -0 0zm1.69 1.99l0.04 0.14 -0.37 0.15 -0.18 0.15 -0.24 0.03 -0 -0.08 -0.11 -0.06 0.01 -0.09 -0.08 -0.03 -0.1 -0.18 0.12 -0.17 0.07 0.04 0.08 -0.04 0.24 -0.51 0.07 -0.08 0.07 0 0.17 -0.27 0.17 -0.08 0.14 -0.2 0.1 -0.05 0.08 0.15 -0.11 0.13 -0.03 0.14 -0.32 0.42 -0 0.28 0.16 0.21 0 -0z" title="Hyogo"/>
   <path id="JP-01" class="fil0 str0" d="M59.67 12.97l0.49 -0.38 0.01 -0.11 -0.35 -0.57 -0.25 -0.18 -0.13 -0.21 0.12 -0.46 -0.05 -0.09 0.3 0.02 0.11 -0.08 0.04 -0.1 0.1 -0.04 0.49 0.48 0.35 0.16 0.2 0.23 0.45 -0.08 0.03 -0.08 0.18 -0.06 0.13 0 -0.03 0.21 0.55 0.25 0.4 -0.22 0.35 -0.39 0.18 -0.29 0.02 -0.42 -0.25 -0.5 0.1 -0.35 -0.12 -0.26 -0.08 -0.41 0.18 -0.38 0.26 -0.16 0.14 -0.01 0.37 -0.24 0.17 -0.34 0.07 -0.35 -0.06 -1.41 0.09 -0.06 0.3 -0.62 0.04 -0.51 0.07 -0.14 0.02 -0.29 -0.05 -0.59 -0.14 -0.69 -0.55 -1.32 -0.06 -0.21 0.01 -0.18 0.15 -0.23 0.14 -0.35 -0.07 -0.25 0.03 -0.23 0.13 0.14 0.02 0.09 0.07 0.03 0.32 -0.05 0.24 -0.17 0.1 -0.36 0.16 -0.06 0.08 0.06 0.1 0.23 0.11 0.06 0.11 0.26 0.42 0.31 0.4 0.56 0.89 1 0.7 1.3 0.46 0.46 0.44 0.56 1 0.79 0.28 0.16 0.06 0.17 0.23 0.17 0.67 0.35 0.58 0.23 1.06 0.3 0.5 0.1 0.08 -0.06 0.05 0.14 -0.01 0.23 0.16 0.28 0.1 0.09 0.58 0.18 0.61 0.04 0.46 -0.06 0.41 -0.36 0.28 -0.35 0.39 -0.37 0.33 -0.23 0.12 -0.26 0.2 -0.21 0.14 -0.25 0.08 0.01 0.08 0.4 -0.22 0.45 -0.16 0.17 -0.11 0.43 -0.31 0.38 -0.17 0.38 0.02 0.15 -0.14 0.37 0.04 0.19 0.24 0.46 0.27 0.35 0.27 0.94 0.27 0.35 -0.21 -0.1 -0.03 -0.1 -0.21 -0.04 -0.04 0.07 0.04 0.23 0.15 -0.12 0.08 0.07 -0.05 0.1 0.07 0.07 0.07 -0.05 0.46 0.11 0.38 -0.31 0.06 -0.11 0.2 -0.13 0.04 -0.09 0.59 0.04 -0.03 0.09 -0.21 0.16 -0.31 0.06 -0.34 0.19 -0.14 0.53 -0.14 -0.06 -0.22 -0.01 -0.49 0.09 -0.27 0.16 -0.23 -0.04 -0.11 0.11 -0.03 0.21 -0.29 0.39 -0.18 0.09 -0.34 -0.02 -0.16 -0.14 0.01 -0.1 0.06 -0.06 -0.1 -0.07 -0.13 0.02 -0.21 0.31 -0 0.07 0.21 0.2 -0.36 -0.02 -0.21 -0.06 -0.64 -0 -0.12 -0.03 -0.28 -0.23 -0.55 0.1 -0.44 0.21 -0.61 0.46 -0.95 0.95 -0.73 1.04 -0.28 0.6 -0.05 0.3 0.1 0.26 -0.15 0.7 -0.16 0.28 0 0.29 -0.67 -0.67 -0.87 -0.36 -1.46 -0.8 -0.43 -0.3 -0.33 -0.37 -0.58 -0.17 -0.4 -0.37 -0.33 -0.22 -0.33 -0.1 -0.43 -0.01 -0.57 0.19 -0.37 0.23 -0.48 0.41 -0.29 0.16 -0.38 0.44 -0.06 0.13 -0.19 -0.07 -0.06 -0.1 0.07 -0.05 0.11 0.12 0.02 -0.15 -0.24 -0.07 -0.16 -0.43 -0.14 -0.07 -0.19 -0.2 -0.02 -0.1 -0.23 -0.22 -0.22 -0.02 -0.22 0.1 -0.17 -0.11 -0.22 0.01 -0.3 0.33 -0.26 0.49 -0.13 0.46 0.05 0.35 0.42 0.22 0.49 0.42 0.14 0.03 0.25 -0.1 0.37 0.06 0.22 0.4 0.29 0.22 0.19 0.34 0.57 0.24 0.1 0.16 0.14 0.11 -0.11 0.11 -0.17 0 -0.2 0.23 -0.3 0.12 -0.15 -0.14 -0.5 -0.16 -0.17 0.03 -0.05 0.11 -0.07 0.02 -0.03 -0.11 0.12 -0.08 -0.04 -0.12 -0.11 -0.07 -0.15 0.01 -0.07 0.06 -0.08 0.3 -0.26 0.19 -0.23 0.02 -0.06 0.06 -0.06 0.71 -0.07 0.09 -0.17 0.01 -0.35 0.16 -0.16 0.34 -0.07 0.06 -0.18 -0.14 -0.21 0.04 -0.16 -0.13 -0.19 -0.49 -0.02 -0.15 0.07 -0.32 0.24 -0.55 0 -0.19 0.14 0.01 0.05 -0.11 0.06 -0.49 -0.07 -0.36 -0.34 -0.53 -0.12 -0.06 -0.23 -0.02 -0.09 -0.24 -0.15 -0.16 -0.21 -0.07 -0.07 -0.13 -0.03 -0.25 0.06 -0.2 0.17 -0.19 0.06 -0.17 0.01 -0.48 -0.09 -0.4 0.17 -0.26 0.2 -0.11 0.41 -0.01 0.11 -0.16 0.25 -0.13 0.15 -0.35 0.15 0.1 0.1 0.17 0.16 -0.04 0.02 -0.25 0.15 -0.15 0.15 -0.31 -0 0zm2.65 -11.05l-0.02 -0.22 0.23 -0.22 0.37 0.22 0.09 0.33 -0.33 0.27 -0.25 -0.19 -0.11 -0.17zm-5.74 14.61l-0.05 0.4 -0.07 0.11 -0.12 0.04 -0 0.06 -0.11 -0.1 0.01 -0.31 -0.08 -0.2 0.13 -0.2 0.34 -0.07 0.08 -0.09 0.01 0.11 -0.15 0.23 0 -0zm5.46 -15.62l-0.05 0.47 -0.07 0.02 -0.16 -0.53 0.04 -0.24 -0.11 -0.06 0.02 -0.13 0.12 0.15 0.12 -0.03 -0 -0.11 0.06 0.05 0.06 0.14 -0.03 0.26z" title="Hokkaido"/>
   <path id="JP-34" class="fil0 str0" d="M32.17 52.45l-0.14 -0.13 -0.26 0.31 0.06 0.16 0.14 -0.04 0.06 0.06 -0.03 0.04 -0.13 0.1 -0.05 -0.05 -0.28 0.05 -0.03 -0.11 0.21 -0.11 -0.04 -0.08 0.03 -0.11 0.1 -0.08 0.01 -0.17 -0.13 -0.31 0.03 -0.17 -0.24 -0.12 -0.41 0.19 -0 0.07 -0.31 0.29 -0.04 0.09 0.05 0.03 0 0 -0.06 0.03 -0.23 -0.06 -0.09 -0.26 0.01 -0.11 -0.17 -0.14 -0.04 -0.24 0.03 -0.15 -0.05 -0.12 0 0 -0.09 -0.11 0.05 -0.12 0.11 -0.03 0.11 -0.12 0.04 -0.32 0.13 -0.19 -0.1 -0.06 0.05 -0.09 0.26 -0.15 0.06 -0.21 0.14 0.02 0.07 0.09 0.04 -0.08 0.22 -0.02 0.09 0.08 0.09 -0.08 -0.01 -0.04 0.07 -0.03 0.04 0.07 0.29 0.02 0.26 -0.19 0.32 -0.03 -0 -0.16 -0.12 -0.04 -0.07 -0.08 0.15 -0.18 0.21 -0.04 0.43 -0.6 0.07 -0.01 0.21 0.13 0.14 -0.11 0.18 0.14 0.26 -0.08 0.1 0.04 0 0 0 0.05 0.38 -0.06 0.08 0.09 0 0 0.18 0.22 -0.08 0.22 -0 0.29 0.29 0.36 -0.05 0.2 0.07 0.34 -0 0.25 0.22 0.3 0.02 0.31 0 0 -0.08 0.22 -0.16 0.02 -0.01 0.16 -0.06 0.06 -0.43 -0.09 -0.01 -0.04 0.1 -0.03 -0.01 -0.11 -0.1 -0.04 0.01 0.08 -0.12 0.05 -0.3 0.12 -0.13 -0.02 -0.04 0.18 -0.23 0.07 -0.23 -0.04 -0.21 0.05 -0.06 0.1 -0.1 0.05 -0.04 -0.1 -0.13 0.01 -0.05 0.15 -0.08 -0.03 -0.01 0.18 -0.21 0.01 -0.24 0.15 0 0z" title="Hiroshima"/>
   <path id="JP-08" class="fil0 str0" d="M60.3 43.34l-0.02 0.38 0.16 0.59 0.48 0.99 0.29 0.45 0.15 0.08 0.01 0.08 0 0 -0.45 -0.28 -0.2 -0.28 -0.22 -0.05 -0.2 -0.17 -0.16 0.01 -0.19 -0.09 -0.36 0.09 -0.15 0.15 -0.14 -0.04 -0.11 0.07 -0.15 -0.02 -0.18 0.07 -0.1 -0.13 -0.44 -0.15 -0.19 -0.13 -0.04 -0.13 -0.13 -0.04 -0.29 -0.36 -0.06 -0.15 -0.08 -0.01 0 0 -0.07 0.06 -0.07 -0.02 -0.16 -0.35 0.03 -0.16 0 0 0.13 -0.01 0.3 -0.16 0.1 -0.3 0.2 0.05 0.02 -0.16 0.18 -0.08 0.02 -0.08 0.28 -0.01 0.05 -0.02 0.01 -0.09 0.12 0.04 0.07 -0.08 0.08 -0 0.05 0.07 0.12 -0.04 0.04 -0.21 0.17 -0.33 -0 -0.33 -0.1 -0.35 0.05 -0.07 0.17 -0.04 0.02 -0.06 -0.11 -0.18 0.04 -0.23 -0.05 -0.18 0.02 -0.36 0 0 0.1 0.01 0.14 0.18 0.15 0.04 0.06 0.21 0.21 0.08 0.08 0.1 0.26 -0.25 0.2 -0.09 -0.08 -0.23 0.06 -0.08 0.1 0.19 0.62 0.19 0 0 0.01 0 0 0 0.01 0 0 0 0.03 0.12 -0.11 0.03 -0.09 0.17 -0.21 0.72 -0.13 0.21 -0.14 0.41 0.03 0.52 -0.19 0.23 -0 0z" title="Ibaraki"/>
   <path id="JP-17" class="fil0 str0" d="M46.66 39.89l-0.01 -0.23 -0.06 -0.03 -0.06 0.06 -0.05 -0.05 0.11 -0.42 0.07 -0.06 0 -0.3 0.06 -0.07 0.26 -0.21 0.2 -0.09 0.2 0.05 0.52 -0.27 0.08 -0.1 0.18 -0.09 0.23 -0.03 0.24 -0.13 0.19 0.02 0.08 0.12 -0.04 0.08 0.07 0.15 -0.11 0.05 -0.18 -0.01 -0.1 0.06 -0.05 0.21 0.11 0.19 -0.12 0.18 -0.32 -0.01 -0.16 0.09 -0.1 0.27 -0.21 0.15 -0.1 -0.1 -0.09 -0.01 0.03 -0.11 -0.06 0 -0.26 0.39 0.1 0.04 -0.03 0.11 -0.09 0.02 0.02 0.08 -0.05 0.07 0.1 0.02 0.1 -0.1 0.2 0.2 0.14 -0.12 0.04 -0.12 0.1 0 0.01 0.63 0 0 -0.22 -0.02 -0.13 0.05 -0.25 0.25 -0.11 0.63 -0.1 0.12 -0.03 0.18 0.04 0.08 -0.14 0.22 0.03 0.2 0.08 0.1 -0.13 0.53 0.08 0.34 -0.06 0.08 0.03 0.16 0 0 0.04 0.1 0.14 0.08 0.01 0.07 -0.17 0.3 -0.11 0.04 0.04 0.13 -0.09 0.2 0 0 -0.34 0.09 -0.04 -0.11 -0.33 -0.26 -0.31 0.08 -0.08 -0.01 -0.12 -0.14 -0.16 0.02 -0.07 -0.07 -0.04 -0.22 -0.3 -0.29 0 0 0.2 -0.25 0.17 -0.06 0.25 -0.24 0.8 -1.08 0.2 -0.35 0.24 -0.68 0.01 -0.41 -0.17 -0.27 -0 -0.16 0 -0z" title="Ishikawa"/>
   <path id="JP-03" class="fil0 str0" d="M65.04 30l0.08 0.03 0.01 0.08 -0.15 -0.01 0.1 0.1 0.09 -0 0.06 0.12 -0.19 0.08 -0.13 -0.01 0 0.06 0.09 0.05 0.1 -0.02 0 0.04 -0.12 0.1 -0.13 -0.01 -0.05 0.05 0.3 0.19 -0.15 0.05 -0.23 -0.1 0.04 0.17 0.18 0.05 -0.22 0.03 0.13 0.1 -0.05 0.05 -0.2 -0.01 -0.08 0.04 -0.08 -0.08 0.01 -0.1 -0.06 -0.03 0.01 0.11 -0.05 0.08 0.12 0.15 -0.08 0.01 0.02 0.16 -0.08 0.06 -0.13 -0.17 0.04 -0.1 -0.04 -0.03 -0.17 0.02 0.03 0.14 0 0 -0.21 -0.09 -0.26 -0.02 -0.04 0.09 0.02 0.32 -0.12 0.13 0.02 0.09 -0.09 0.35 -0.44 -0.18 -0.16 0.16 -0.03 0.13 -0.09 0.03 -0.32 -0.18 -0.08 -0.2 0.11 -0.1 -0.04 -0.09 -0.13 -0.04 -0.4 0.04 -0.1 -0.15 -0.26 -0.09 -0.22 -0.16 -0.17 0.03 0 0 -0.01 -0.21 0.14 -0.25 -0.03 -0.07 -0.17 -0.07 0.05 -0.17 -0.05 -0.04 0.08 -0.15 0.11 -0.05 -0.15 -0.08 0.06 -0.19 -0.2 -0.14 -0.1 -0.14 0.03 -0.17 -0.11 -0.22 -0.07 -0.02 0.01 -0.12 0.08 -0.02 -0.01 -0.15 0.14 -0.15 0.08 -0.24 -0.04 -0.13 0.08 -0.02 0.11 -0.15 0.05 0.01 0.09 -0.21 -0.02 -0.19 -0.12 -0.21 0.07 -0.03 0.15 -0.26 -0.2 -0.12 -0.01 -0.19 0.15 -0.08 0.09 0.09 0.1 -0.03 -0.11 -0.45 0.01 -0.48 0.09 -0.08 0.03 -0.28 -0.07 -0.09 0.15 -0.2 0.11 -0.04 0.07 -0.1 0 0 0.08 0.12 0.17 0 0.18 -0.14 0.08 -0 0.01 -0.13 0.13 -0.09 0.27 -0.07 0.35 -0.27 0.12 0.19 0.31 -0.2 0.12 -0.02 0.22 0.14 0.16 -0.12 0.02 -0.15 0.25 -0.11 0.08 -0.1 0 0 0.25 0.37 0.28 0.62 -0.18 0.19 0.25 0.11 0.08 0.12 -0.02 0.04 -0.09 0 -0.06 0.1 0.02 0.18 0.06 0.09 0.09 0.03 0.09 0.16 0.12 0.02 0.07 0.13 -0.06 0.29 0.13 0.22 0.04 0.54 -0.08 0.3 0.08 0.01 -0.15 0.46 0.04 0 0.24 -0.32 0 0.36 0.11 0.01 0.05 0.13 -0.03 0.06 -0.11 0.01 -0.15 0.21 -0.13 0.04 0.08 0.16 0.21 -0.2 0.06 -0.01 0.04 0.07 -0.08 0.24 -0.2 0.05 -0.16 0.11 -0.15 0.21 0.06 0.06 0.14 -0.08 0.08 0.1 -0.31 0.05 0.07 0.07 -0 0z" title="Iwate"/>
   <path id="JP-39" class="fil0 str0" d="M33.85 57.26l-0.04 0.19 -0.18 -0.06 -0.11 0.08 -0.08 0.29 0.06 0.3 -0.21 0.09 -0 0.2 0.19 0.11 0.06 0.27 -0.06 0.01 -0.3 -0.27 -0.14 -0.02 -0.06 0 -0.22 0.19 -0.11 -0.06 -0.05 0.04 -0.16 -0.19 -0.29 0.16 -0.02 -0.15 0.12 -0.18 -0.01 -0.06 0.21 -0.23 -0.04 -0.07 -0.15 0.01 0.01 -0.07 0.07 -0.02 0 -0.24 -0.09 -0.22 0.04 -0.17 -0.14 -0.15 -0.05 -0.16 0.06 -0.07 0.19 0.21 0.03 -0.01 0.15 -0.25 0.11 -0.03 0.09 -0.3 0.22 -0.08 0.16 -0.12 -0.01 -0.1 -0.13 -0.09 -0.19 -0.39 0.13 -0.07 0.39 0.05 0.22 -0.06 0.17 -0.26 -0.06 -0.14 0.11 -0.33 0.15 -0.07 0.01 -0.1 0.13 -0.16 0.12 -0.27 0.1 0.06 0.09 -0.03 0.11 -0.18 0.78 0.01 0.17 -0.22 0.13 0.05 0.08 -0.06 0.19 0 0 0 0.07 0.1 0.24 0.09 0.33 -0.03 0.12 0.16 0.14 0.06 0.11 -0.04 0.08 -0.15 0.07 -0.02 0.04 0.08 0.13 -0.03 0.09 0.23 0.02 0.36 0.35 0.01 0.04 0.14 -0.08 0.1 0.02 0.08 0.14 0.21 0.38 0.04 0 0 -0.34 0.64 -0.12 0.64 -0.13 -0.22 -0.11 0 -0.02 -0.13 -0.18 -0.18 -0.08 -0.19 -0.25 -0.12 -0.09 -0.19 -0.58 -0.11 -0.08 -0.1 -0.57 0.09 -0.04 0.08 -0.42 0.21 0 0.12 -0.39 0.07 -0.1 0.19 -0.04 -0.1 -0.17 0.05 0.01 0.11 -0.05 0.05 0.04 0.08 -0.06 0.14 0.06 -0.02 0.01 0.1 -0.06 0.03 0.03 0.1 -0.16 0.17 0.04 0.13 -0.04 0.03 -0.01 -0.07 -0.08 0.01 -0.27 0.4 0 -0z" title="Kochi"/>
   <path id="JP-37" class="fil0 str0" d="M36.22 52.07l0.39 -0.22 0.03 -0.17 0.37 0.13 0.29 0.01 0.19 -0.22 0.1 0.07 -0.03 0.17 0.03 0.07 0.06 0.01 0.02 -0.07 0.08 -0.02 0.2 0.04 -0 0.07 -0.07 0.06 0.03 0.09 0.2 0.05 0.15 0.11 0.07 -0.01 0.25 0.19 0 0 -0.03 0.17 -0.08 0.04 -0.2 -0.1 -0.05 0.05 -0.29 -0.05 -0.31 0.03 -0.13 0.1 0.01 0.08 -0.06 0.06 -0.22 0.03 -0.21 0.16 -0.08 0 -0.15 -0.17 -0.25 0.04 -0.14 0.05 -0.05 0.09 -0.1 -0.03 -0.18 0.15 -0.03 0.09 -0.11 0.04 0 0 -0.34 -0.13 0.12 -0.09 0.06 -0.55 -0.27 -0.22 0.01 -0.06 0.06 -0.02 0.29 0.14 0.1 -0.03 0.27 -0.24 0 0z" title="Kagawa"/>
   <path id="JP-43" class="fil0 str0" d="M25.41 61.32l-0.22 -0.12 -0.05 -0.09 -0.1 -0.02 -0.07 -0.13 -0.1 0.14 -0.16 0.07 -0.15 -0 -0.11 0.1 -0.19 -0.03 -0.06 -0.11 -0.1 -0.05 0 0 0.03 -0.19 0.19 -0.2 0.22 -0.47 0.3 -0.3 -0.02 -0.17 -0.07 -0.01 -0.01 -0.08 0.12 0.01 0.02 -0.04 -0.16 -0.1 0.44 -0.44 -0.04 -0.04 -0.2 0.08 -0.47 0.02 0 -0.07 0.49 -0.33 -0 -0.27 0.04 -0.06 -0.15 -0.21 -0.14 -0.03 -0.02 -0.14 -0.26 -0.12 -0.06 -0.32 -0.1 -0.09 0 0 0.39 0.01 -0.03 -0.19 0.29 -0.27 0.27 0.03 0.1 -0.26 0.03 0.07 0.15 -0.01 0.12 0.11 0.28 0.09 0 0 -0 0.05 0.16 0.03 0.11 0.14 0.11 0.01 0.07 0.11 0.07 0 0.09 -0.11 0.03 -0.15 -0.15 -0.22 0.02 -0.13 0.18 -0.1 0.25 0.05 0.19 0.2 0.03 0.21 0.15 0.14 0.11 0.29 0.04 0.41 0.25 0.23 0 0 -0.23 0.03 -0.1 0.18 -0.01 0.16 -0.17 0.12 -0.04 0.17 -0.11 0 -0.06 0.1 -0.04 0.25 -0.08 0.06 -0.13 -0.04 -0.05 0.13 -0.07 0.03 -0.04 0.25 0.04 0.2 0.08 0.12 0.08 0.02 0.03 0.21 0.14 0.12 -0.11 0.19 -0.1 0.01 -0.04 0.11 0.21 0.24 0.03 0.16 -0.16 0.02 -0.2 -0.06 -0.13 0.21 -0.07 0.02 -0.15 -0.06 -0.18 0.13 -0.46 -0.01 0 0zm-1.08 -1.76l0.08 -0.01 -0.04 0.23 -0.1 0.14 0.05 0.02 -0.1 0.15 -0.15 0.07 -0.21 -0.09 -0.16 0.01 -0.01 -0.07 -0.09 -0.03 -0.07 0.07 0.09 0.07 0.01 0.08 -0.08 0.18 -0.33 0.24 -0.04 0.15 -0.19 0.13 0.01 0.17 -0.08 0.03 -0.12 -0.2 0.04 -0.16 -0.13 -0.04 0.12 -0.26 -0.08 -0.1 -0 -0.13 0.21 -0.43 0.03 -0.2 0.25 -0.12 0.25 -0.03 0.04 0.05 -0.03 0.17 0.05 0.19 0.29 -0.15 0.11 -0.13 0.16 -0.05 0.1 0.07 0.12 -0.03 0 0zm-0.93 1.28l-0.01 -0.13 0.1 -0.11 -0.04 0.17 0.12 0.31 -0.08 0.05 -0.08 0.22 -0.18 -0.15 0.01 -0.14 -0.06 -0.06 0.03 -0.16 0.2 -0.01 0 0zm1.02 -1.43l-0.1 0.05 -0.06 -0.03 -0.04 -0.16 0.17 -0.16 0.06 0.16 -0.06 0.08 0.03 0.06 0 0z" title="Kumamoto"/>
   <path id="JP-14" class="fil0 str0" d="M54.45 47.3l0.07 -0.2 0.32 -0.15 0.08 -0.12 0.13 -0.02 0.09 -0.09 0.06 -0.13 0 -0.47 0 0 0.11 0.02 0.08 0.1 0.11 -0.01 0.11 0.18 0.15 -0.03 0.39 0.13 0.24 0.34 0.05 -0.01 0.03 -0.36 -0.14 -0.11 0.04 -0.04 0.09 0.08 0.14 -0.16 0.48 0.23 0.06 0.12 0.09 0.04 0 0.07 0 0 0.12 -0.03 0 0 0 0 0 0 0.01 0 0 0 0 0 0 0 0.08 0.13 -0.27 0.14 -0.13 -0.01 -0.07 0.07 0.07 0.08 0.07 -0.02 0.07 0.05 -0.07 0.16 -0.06 -0.04 -0.08 0.01 -0.02 0.07 0.09 0.05 0.05 0.24 -0.06 0.13 0.17 0.14 0.19 0.04 -0.08 0.19 -0.13 0.02 -0.12 0.1 0.02 0.11 0.06 0.02 -0.01 0.08 -0.24 -0.01 0.03 -0.21 -0.06 -0.21 -0.11 -0.12 0.01 -0.11 -0.46 -0.11 -0.44 0.06 -0.38 0.12 -0.21 0.17 -0.03 0.38 -0.12 0.06 0 0 -0.27 -0.04 -0.02 -0.12 -0.13 -0.1 -0.04 -0.27 0.1 -0.11 0.05 -0.17 -0.06 -0.28 -0.03 -0.04 -0.28 0 0 -0z" title="Kanagawa"/>
   <path id="JP-46" class="fil0 str0" d="M23.76 64.12l0.2 -0.34 0.05 -0.42 -0.04 -0.19 -0.56 -0.57 0.2 -0.49 -0.03 -0.2 -0.13 -0.25 0.1 -0.19 -0.13 -0.1 0.04 -0.1 0.15 -0.08 0.09 0 0.12 0.08 0.19 -0.02 0.08 -0.17 0 0 0.1 0.05 0.06 0.11 0.19 0.03 0.11 -0.1 0.15 0 0.16 -0.07 0.1 -0.14 0.07 0.13 0.1 0.02 0.05 0.09 0.22 0.12 0 0 -0.09 0.18 0.12 0.04 0.15 0.14 0.08 0.26 0.19 0.06 0.13 0.15 -0.02 0.23 -0.04 0.01 0.03 0.16 0.12 0.02 0.05 0.06 0.19 0.02 -0.03 0.11 0.14 0.03 0.03 0.28 0.1 0.17 0.09 -0.1 0.13 0.12 0.17 -0.02 0.08 0.05 0.05 0.17 -0.04 0.11 0.03 0.15 -0.11 0.12 -0.02 0.13 0 0 -0.21 -0.08 -0.18 0.14 -0.13 0.2 -0.01 0.14 0.32 0.11 0 0.08 -0.12 0.13 0.03 0.03 0.14 -0.05 0.02 0.04 -0.23 0.2 -0.18 0.01 -0.04 0.15 -0.14 0.21 -0.32 0.18 -0.26 0.04 -0.49 0.37 0.06 -0.24 -0.09 -0.07 0.32 -0.25 0.08 -0.2 -0.04 -0.13 0.13 -0.16 0.05 -0.35 -0.17 -0.37 -0.08 -0.11 -0.12 -0.05 0.02 -0.35 -0.24 0.01 -0.16 -0.15 0.12 -0.16 0.19 -0.04 0.13 0.11 -0.02 0.15 0.19 0.02 0.2 -0.37 -0.09 -0.2 -0.48 -0.14 -0.15 0.12 -0.04 0.21 -0.17 0.24 0.03 0.1 -0.13 0.26 -0.04 -0.01 -0.03 0.18 0.05 0.24 0.14 0.37 0.19 0.18 0.16 0.04 -0.09 0.32 -0.19 0.13 -0.11 -0.09 -0.14 0.05 -0.04 -0.05 0.01 -0.15 -0.17 -0.15 -0.38 0 -0.15 -0.07 -0.33 0.07 -0.03 -0.27 -0.12 -0.04 0.13 -0.1 -0.28 -0.27 0.1 -0.12 0.05 0.09 0.19 0.09 0.14 -0.1 -0 0zm0.83 3.95l0.26 0.11 -0.01 0.06 0.25 0.07 0.12 0.11 -0.07 0.32 -0.24 0.24 -0.22 0.05 -0.3 -0.05 -0.05 -0.14 -0.04 0.03 0 -0.12 -0.08 -0.1 -0.05 -0.21 0.01 -0.08 0.17 -0.01 0.13 -0.16 0 -0.08 0.1 0.02 0.02 -0.07 0 0.03 0 0zm1.59 -0.48l-0.03 -0.37 0.15 -0.23 0.05 0 0.03 -0.24 0.19 -0.23 0.09 0.21 -0.04 0.1 0.03 0.28 -0.09 0.13 0.01 0.21 -0.09 0.11 0.01 0.08 -0.12 0.08 -0.13 0.27 0.03 0.05 -0.04 0.04 0.08 0.09 -0.04 0.08 0.05 0.06 -0.06 0.02 -0 0.08 -0.15 -0 -0.18 0.12 -0.05 -0.1 0.03 -0.16 -0.06 -0.24 0.09 0 0.26 -0.46 0 0zm-4.34 -4.38l-0.14 0.08 -0.07 -0.05 -0.02 -0.1 0.07 -0.04 0.07 -0.2 0.24 -0.09 0.08 -0.22 0.06 0.03 -0.01 0.09 -0.11 0.21 -0.11 0.03 0.02 0.07 -0.07 0.07 0.05 0.06 -0.05 0.06 -0 0zm0.39 -0.81l-0.06 -0.1 0.06 -0.08 0.1 0.01 0.07 0.09 0.15 -0.03 0.02 0.07 -0.01 0.11 -0.16 0.05 -0.09 -0.05 0.01 -0.06 -0.07 -0.06 -0.03 0.05 -0 0zm1.41 5.64l0.12 0.09 -0 0.05 -0.07 -0.01 -0.12 0.07 -0.07 -0.08 0.01 -0.09 -0.09 0.02 -0.1 -0.14 0.31 0.09 -0 0z" title="Kagoshima"/>
   <path id="JP-26" class="fil0 str0" d="M41.88 48.84l0.03 -0.1 0.07 -0.04 -0.05 -0.23 -0.17 -0.09 -0.15 0.03 -0.01 -0.13 -0.04 -0.01 -0.15 -0.01 -0.08 0.06 -0.1 -0.04 0.04 -0.1 -0.15 -0.15 -0 -0.14 -0.18 -0.01 -0.14 0.08 -0.24 -0.21 -0.27 -0.11 -0 -0.23 0.07 -0.18 0.21 0.1 0.16 -0.09 0 -0.47 -0.06 -0.1 -0.24 0.12 -0.13 -0.03 -0.04 -0.11 -0.15 -0.14 -0 -0.36 0 0 0.05 0.05 0.17 -0 0.11 -0.05 0.08 -0.14 0.15 0.01 0.35 -0.24 0.34 -0.11 0.19 0.12 0.12 0.22 -0.19 0.18 -0.03 0.13 -0.2 0.24 0.01 0.11 0.05 -0 0.11 -0.17 0.11 0.06 0.02 0.03 -0.12 0.1 0.24 0.11 0.04 -0.06 0.03 0.25 0.09 -0.09 0.15 0.04 0.01 -0.09 -0.23 -0.14 0.15 -0.12 0.17 -0.02 0.03 -0.1 0.06 -0 0 0.1 0.07 0.04 0 0 -0.07 0.16 0.09 0.08 -0.05 0.18 0.24 0.22 0.02 0.16 0.31 0.03 0.27 0.11 0.25 -0.05 0 0 0.21 0.33 0.08 -0 -0.07 0.26 0.08 0.38 -0.06 0.31 -0.06 0.04 0.05 0.21 0.16 0.27 -0.04 0.19 0.13 0.08 0.13 -0.07 0.02 0.16 0.06 -0.01 0.05 0.07 0.07 -0.03 0.11 0.11 -0.05 0.05 0.03 0.07 0 0 0.08 0.22 0 0 -0.06 0.13 -0.1 -0.01 -0.09 -0.12 -0.18 -0 0.01 -0.06 -0.13 0.2 -0.13 0.01 -0.35 -0.09 -0.09 -0.22 0 0 0.05 -0.11 -0.18 -0.21 -0.06 -0.19 -0.22 -0.21 0 -0.11 -0.14 -0 -0.05 0.12 0.07 0.08 -0.14 0.05 -0.12 -0.13 -0.04 0.02 -0.01 -0.21 -0.39 -0.11 -0.03 -0.13z" title="Kyoto"/>
   <path id="JP-24" class="fil0 str0" d="M46.57 52.08l-0.03 0.02 0.12 -0.22 -0.1 -0.06 -0.12 0.25 -0.2 0.13 -0.07 0.01 -0.05 -0.14 -0.05 0.02 -0.04 0.15 -0.02 -0.12 -0.13 -0 0.05 0.17 -0.04 0.04 -0.53 0.13 -0.07 -0.02 -0.12 0.1 -0.1 0.18 0.06 0.11 0.08 -0.01 -0.06 0.12 -0.11 0.02 -0.07 -0.1 -0.07 0.02 0.03 0.06 -0.13 0.04 0.03 0.06 0.12 -0.02 0 0.12 0.13 0.07 -0.03 0.22 -0.12 0.02 -0.14 0.2 -0.17 0.03 -0.07 0.12 -0.11 -0.01 -0.19 0.34 -0.13 0.36 0 0 -0.23 -0.05 -0.31 -0.35 0.01 -0.35 0 0 0.2 -0.31 0.22 -0.07 0.15 -0.2 0.29 0.04 -0.03 -0.24 0.04 -0.05 0.02 -0.31 -0.07 -0.12 0.13 -0.24 -0.12 -0.21 0.12 -0.06 -0.21 -0.33 0.09 -0.17 0.39 -0.06 0.07 -0.17 -0.05 -0.17 -0.12 0.05 -0.08 -0.18 -0.15 0.05 -0.19 -0.09 -0.05 -0.07 0.08 -0.18 -0.01 -0.11 0.07 -0.09 -0.14 -0.28 0 0 -0.08 -0.22 0 0 0.24 -0.1 -0.01 -0.09 0.14 -0.11 -0.01 -0.04 -0.11 -0.01 -0.01 -0.04 0.08 -0.07 0.06 0.07 0.18 -0 0.24 0.12 0.42 -0.2 0.04 -0.17 0.14 -0.2 0.01 -0.25 0.13 -0.45 -0.13 -0.13 -0.01 -0.15 0 0 0 0 0 0 0.4 -0.17 0.31 0.45 0.19 0.02 0 0 0.06 0.22 0.17 0.28 0 0 -0.14 0.04 -0.17 0.12 -0.06 0.18 0.05 0.2 -0.35 0.53 -0.1 0.29 0.01 0.12 0.12 0.05 -0.07 0.24 0.38 0.11 0.05 0.12 0.23 0.08 0.19 0.15 0.21 0.01 0.04 0.12 0.1 0.02 -0.04 0.05 0.03 0.05 0.13 -0.02 0.05 0.05 0.01 0.13 -0.2 0.12 0.02 0.06 0.11 0.03 -0.11 0.13 0.05 0.08 -0.08 0.23 -0.17 0.05 -0.25 -0.08 0.19 -0.03 0.1 0.05 0.01 -0.12 -0.09 -0.02 -0.05 0.04 -0.26 -0.06 -0.1 0.06 0 0z" title="Mie"/>
   <path id="JP-04" class="fil0 str0" d="M62.06 34.26l-0.07 0.13 0.06 0.04 0.06 -0.03 0.03 0.12 -0.23 0.14 -0.31 0.65 -0.07 0.67 0.06 0.35 0 0 -0.12 -0.03 -0.13 0.05 0.01 0.39 -0.02 0.04 -0.28 -0.01 0.08 0.07 -0.03 0.03 -0.22 -0.05 -0.11 -0.09 -0.05 -0.14 0.03 -0.21 -0.1 -0.08 -0.15 -0.05 -0.48 0.05 -0.07 -0.2 -0.21 -0.12 -0.2 0.1 -0.25 -0.12 0 0 -0.01 -0.36 0.31 -0 0.18 -0.1 0.03 -0.18 0.2 -0.28 -0.04 -0.22 0.03 -0.18 0.19 -0.24 -0.03 -0.11 0.2 -0.21 0.11 -0.29 -0.04 -0.13 -0.11 -0.07 -0.05 -0.16 0.07 -0.12 -0.01 -0.1 -0.11 -0.25 0.02 -0.04 0.12 0.06 0.07 -0.02 0.08 -0.21 -0.04 -0.17 0.12 -0.2 -0.15 -0.08 -0.03 -0.19 -0.19 -0.18 0.04 -0.06 0 0 0.05 0.03 0.32 -0.06 0.29 -0.28 0.13 -0.03 0 0 0.17 -0.03 0.22 0.16 0.26 0.09 0.1 0.15 0.4 -0.04 0.13 0.04 0.04 0.09 -0.11 0.1 0.08 0.2 0.32 0.18 0.09 -0.03 0.03 -0.13 0.16 -0.16 0.44 0.18 0.09 -0.35 -0.02 -0.09 0.12 -0.13 -0.02 -0.32 0.04 -0.09 0.26 0.02 0.21 0.09 0 0 0.15 0.51 -0.07 -0.02 -0.09 -0.15 -0.12 0.04 -0.02 0.3 -0.24 0.15 -0.03 0.1 0.18 0.12 -0.01 0.22 -0.13 -0.12 -0.18 0.17 -0.11 0.03 -0.01 0.13 0.31 0.04 -0.02 0.12 -0.13 0.11 -0.08 0.01 0.01 0.09 0.08 0.04 0.03 0.1 0.09 -0.03 0.11 0.06 -0.05 0.17 -0.08 -0.12 -0.06 0.02 0 0.3 -0.17 -0 0.06 0.06 0.02 0.17 0.24 -0.03 0.01 0.05 -0.12 0.02 0.12 0.32 -0.06 0.18 -0.26 -0.19 0.05 -0.09 -0.17 -0.05 0.05 -0.08 0.1 -0.04 -0.1 -0.12 -0.2 0.07 -0.03 -0.12 -0.05 -0.02 -0.17 -0.01 -0.28 0.08 -0.22 0.15 0.02 0.17 -0.1 0.03 -0.01 -0.25 -0.17 -0.02 -0.09 0.06 0 0.07 0 0z" title="Miyagi"/>
   <path id="JP-45" class="fil0 str0" d="M28.16 61.54l-0.18 0.61 -0.03 0.26 0.15 0.21 -0.1 0.28 0.01 0.36 -0.14 0.08 -0.16 0.38 0.04 0.14 -0.1 0.06 0.03 0.17 -0.14 0.13 0.06 0.13 -0.09 0.01 -0.09 -0.08 -0.16 0.01 -0.12 -0.27 -0.19 -0.05 0 0 0.02 -0.13 0.11 -0.12 -0.03 -0.15 0.04 -0.11 -0.05 -0.17 -0.08 -0.05 -0.17 0.02 -0.13 -0.12 -0.09 0.1 -0.1 -0.17 -0.03 -0.28 -0.14 -0.03 0.03 -0.11 -0.19 -0.02 -0.05 -0.06 -0.12 -0.02 -0.03 -0.16 0.04 -0.01 0.02 -0.23 -0.13 -0.15 -0.19 -0.06 -0.08 -0.26 -0.15 -0.14 -0.12 -0.04 0.09 -0.18 0 0 0.46 0.01 0.18 -0.13 0.15 0.06 0.07 -0.02 0.13 -0.21 0.2 0.06 0.16 -0.02 -0.03 -0.16 -0.21 -0.24 0.04 -0.11 0.1 -0.01 0.11 -0.19 -0.14 -0.12 -0.03 -0.21 -0.08 -0.02 -0.08 -0.12 -0.04 -0.2 0.04 -0.25 0.07 -0.03 0.05 -0.13 0.13 0.04 0.08 -0.06 0.04 -0.25 0.06 -0.1 0.11 0 0.04 -0.17 0.17 -0.12 0.01 -0.16 0.1 -0.18 0.23 -0.03 0 0 0.09 0.1 0.07 0 0.36 -0.13 0.15 0.15 -0.03 0.08 0.03 0.05 0.16 0.05 0.09 -0.08 0.4 0 0.09 -0.1 0.03 -0.13 0.14 -0.03 0.29 0.11 -0.05 0.28 0.1 0 0 0 -0.04 0.09 -0.28 0.17 -0.11 0.3 -0.19 0.1 -0.07 0.16 0.04 0.11 0.13 0.1 -0.12 0.1 -0.16 0.03 0.03 0.1 0.11 0.06 -0.17 0.06 -0.21 0.5 -0.28 1.01 0 -0z" title="Miyazaki"/>
   <path id="JP-15" class="fil0 str0" d="M51.94 39.55l0.33 -0.22 0.46 -0.47 0.42 -0.23 0.41 -0.69 0.15 -0.1 0.12 -0.21 0.25 -0.83 0.16 -0.2 0.73 -0.53 0.43 -0.11 0.31 -0.2 0.31 -0.34 0.22 -0.36 0.07 -0.29 0.02 -0.7 0.33 -0.67 0 0 0.33 0.17 0.27 0.06 0.04 0.05 -0.07 0.36 0.14 0.2 0.33 0.09 0.21 0.22 -0.14 0.29 -0.25 0.15 -0.28 -0.04 -0.09 0.15 0.03 0.24 -0.06 0.15 0.06 0.14 -0.12 0.09 -0.11 0.57 0.12 0.21 0.12 0.06 0.08 -0.02 0.08 0.14 0 0 -0.28 0.31 -0.13 0.23 0.02 0.04 -0.28 0.19 -0.01 0.13 0.08 0.19 -0.02 0.15 0.07 0.15 -0.09 0.04 -0.23 -0.04 -0.07 0.04 -0.07 -0.06 -0.08 0.01 -0.07 0.03 -0.06 0.21 -0.12 -0.04 -0.1 0.05 -0.39 0.04 -0.1 0.17 0.12 0.1 -0.03 0.21 -0.04 0.21 -0.17 0.25 0.11 0.14 0.12 0.03 0.08 0.17 -0.06 0.23 0.08 0.25 -0.04 0.14 0.02 0.24 -0.04 0.08 0 0 -0.04 -0.06 -0.17 -0.01 -0.02 -0.14 -0.28 -0.28 -0.02 0.17 -0.15 0.13 -0.29 0.05 0.05 0.35 -0.02 0.04 -0.15 -0.02 -0.05 0.17 0.04 0.08 -0.27 0.11 -0.12 -0.01 0.02 0.18 -0.14 0.12 -0.22 -0.08 -0.06 0.11 -0.04 -0.03 0 0 -0.02 -0.09 -0.07 -0.04 0.09 -0.15 -0.04 -0.08 0.03 -0.13 -0.18 -0.08 -0.19 -0.2 -0.01 -0.28 -0.08 -0.17 -0.15 -0.04 -0.46 0.15 -0.13 0.28 -0.21 0.1 -0.05 0.3 -0.04 0.01 -0.05 -0.11 -0.15 -0.01 -0.18 0.12 -0.22 0 -0.17 0.19 -0.17 -0.12 0.1 -0.23 -0.07 -0.1 -0.33 -0.07 -0.18 0.02 0.01 0.23 -0.14 0.24 -0.25 0.19 0 0 -0.11 -0.3 0 -0.14 -0.07 -0.11 -0.01 -0.21 -0.15 -0.04 -0.13 -0.15 0 0 0.98 -0.36 0.33 -0.24 0.15 -0.05 0.17 -0.2 0.2 0.05 0.22 -0.04 0 0zm0.9 -4.46l-0.11 0.23 0.03 0.19 0.13 0.05 0.29 -0.12 0.04 0.04 -0.26 0.71 -0.49 0.4 -0.2 0.01 -0.18 0.11 -0.13 -0.03 -0.04 -0.08 0.24 -0.1 0.06 -0.15 -0.02 -0.15 0.2 -0.18 0.04 -0.16 -0.04 0.07 -0.09 -0.1 -0.11 -0.02 -0.1 0.19 -0.07 -0.04 0 -0.16 -0.04 -0.03 0.06 -0.06 0.01 -0.25 0.18 -0.22 0.13 -0.29 0.14 -0.07 0.12 -0.18 0.13 -0.03 0.08 -0.28 0.2 -0.05 -0.08 0.58 -0.1 0.16 0 0z" title="Niigata"/>
   <path id="JP-20" class="fil0 str0" d="M49.65 47.8l-0 -0.1 0.15 -0.12 -0.05 -0.23 0.16 -0.05 -0.13 -0.18 0.12 -0.13 0 -0.16 -0.1 -0.1 -0.19 0.06 -0.06 -0.1 0.01 -0.2 -0.07 -0.08 0.08 -0.23 -0.14 -0.13 -0.14 -0.32 -0.22 -0.07 -0.01 -0.09 -0.19 -0 -0.05 -0.07 0.02 -0.1 0.11 -0.04 0.06 -0.19 0.21 -0.06 0.06 0.06 0.08 -0.01 0.09 -0.19 0.08 -0.02 0.07 -0.17 0.18 -0.14 0.07 -0.28 -0.13 -0.04 -0.08 -0.09 0 -0.15 0.13 -0.13 0.01 -0.09 -0.07 -0.1 0.25 -0.33 0.02 -0.14 -0.02 -0.1 -0.19 -0.12 -0.02 -0.09 0 0 0.16 -0.15 0.08 -0.15 -0 -0.14 0.07 -0.1 0.11 -0.03 -0.02 -0.09 -0.04 0.01 0.02 -0.14 0.21 -0.13 0.04 -0.75 0 0 0.25 -0.19 0.14 -0.24 -0.01 -0.23 0.18 -0.02 0.33 0.07 0.07 0.1 -0.1 0.23 0.17 0.12 0.17 -0.19 0.22 -0.01 0.18 -0.12 0.15 0.01 0.05 0.11 0.04 -0.01 0.05 -0.3 0.21 -0.1 0.13 -0.28 0.46 -0.15 0.15 0.04 0.08 0.17 0.01 0.28 0.19 0.2 0.18 0.08 -0.03 0.13 0.04 0.08 -0.09 0.15 0.07 0.04 0.02 0.09 0 0 -0.28 0.15 -0.32 0.06 -0 0.2 -0.17 0.03 -0.17 0.21 0 0.18 -0.11 0.3 0.01 0.23 0.22 0.13 0.08 0.01 0.04 -0.06 0.16 0.04 0.08 -0.07 0.13 -0.02 0.15 0.04 0.05 0.21 -0.01 0.27 -0.19 0.12 0.04 0.2 0.08 0.08 -0.01 0.15 -0.08 0.09 -0.08 -0.06 -0.03 0.03 0.08 0.14 0.12 0.01 0.05 0.12 -0.06 0.06 0.07 0.32 0.11 0.03 0.06 0.09 0.06 -0.02 0 0 -0.02 0.08 0.09 0.19 -0.04 0.09 0 0 -0.07 -0 -0.13 0.17 -0.17 0 -0.1 -0.21 -0.32 -0.01 -0.04 0.07 -0.09 0.02 -0.09 -0.1 0 -0.12 -0.26 -0.1 -0.32 0.49 -0.13 -0.11 -0.04 0.02 -0.17 0.35 0.16 0.15 -0.18 0.2 0.13 0.32 0 0 -0.1 0.29 -0.06 -0.03 -0.1 0.12 0.06 0.05 -0.07 0.1 0.08 0.24 -0.13 0.05 0 0.12 0.1 0.12 -0.03 0.13 -0.3 0.11 -0.22 0.18 -0.23 0.12 -0.04 0.08 -0.09 0 -0.08 0.17 -0.19 0.02 0 0 -0.15 0.05 -0.04 -0.07 -0.28 -0.05 -0.15 0.1 -0.22 0.05 0 -0.09 -0.11 -0.15 0.06 -0.15z" title="Nagano"/>
   <path id="JP-29" class="fil0 str0" d="M44.27 50.15l0.14 0.28 -0.07 0.09 0.01 0.11 -0.08 0.18 0.05 0.07 0.19 0.09 0.15 -0.05 0.08 0.18 0.12 -0.05 0.05 0.17 -0.07 0.17 -0.39 0.06 -0.09 0.17 0.21 0.33 -0.12 0.06 0.12 0.21 -0.13 0.24 0.07 0.12 -0.02 0.32 -0.04 0.05 0.03 0.24 -0.29 -0.04 -0.15 0.2 -0.22 0.07 -0.2 0.31 0 0 -0.36 0.06 -0.12 -0.07 -0.12 -0 -0.21 0.12 -0.04 -0.1 -0.07 -0.02 0.13 -0.33 -0.05 -0.09 -0.1 -0.04 0.01 -0.09 -0.21 -0.17 0.02 -0.1 0.27 -0.26 0.07 -0.1 -0 -0.13 0.1 -0.05 0.15 0.07 0.07 -0.11 -0.04 -0.12 -0.16 -0.09 -0.04 -0.31 -0.07 -0.12 0 0 0.11 -0.07 0.03 -0.2 -0.01 -0.21 -0.1 -0.22 0.1 -0.16 -0.04 -0.08 -0.07 -0.01 0.09 -0.43 0.09 -0.08 0.03 -0.24 0.06 0.01 0 0 0.09 0.22 0.35 0.09 0.13 -0.01 0.13 -0.2 -0.01 0.06 0.18 0 0.09 0.12 0.1 0.01 0.06 -0.14z" title="Nara"/>
   <path id="JP-42" class="fil0 str0" d="M23.74 58.08l0.17 -0.03 0.09 0.06 0.16 0.31 0 0.2 -0.11 0.14 0.04 0.06 -0.04 0.09 -0.29 0.11 -0.12 0.15 -0.23 0.08 0.01 -0.12 -0.14 -0.09 0.01 -0.16 0.25 -0.2 0.01 -0.11 -0.08 -0.04 0.03 -0.08 -0.05 -0.05 -0.33 -0.01 -0.19 0.13 -0.28 -0.02 -0.03 0.18 -0.17 0.27 -0.17 0.1 -0.15 0.2 -0.24 0.09 0.04 -0.1 0.11 -0.04 0.18 -0.55 -0.23 -0.28 0.03 -0.08 -0.1 -0.02 -0.03 0.07 -0.16 -0.16 -0.11 -0.32 -0.11 -0.15 -0.01 -0.1 0.08 -0.13 0.04 -0.28 0.17 -0.05 0.1 0.13 -0.03 0.21 0.07 0.02 0.04 -0.08 0.18 0.11 0 0.29 -0.07 -0 0.03 0.13 -0.06 0.12 0.11 0.01 0.11 0.14 0.17 -0.2 0.29 0.19 0.1 -0.04 -0.28 -0.32 0.07 -0.26 -0.07 -0.17 -0.25 -0.17 -0.28 0.02 -0.15 -0.07 -0.06 -0.36 -0.08 0.02 0.04 0.15 -0.16 0.11 -0.03 -0.13 0.12 -0.01 -0.04 -0.12 -0.15 -0.01 -0.06 -0.12 -0.13 -0.09 -0.1 0 0.02 -0.16 0.1 -0.08 -0.05 -0.26 0.07 -0.21 0.11 0.08 0.16 -0.16 0.05 0.05 -0.06 0.1 0.03 0.05 0.13 0.03 0.12 -0.08 0.06 0.06 0.06 -0.08 0.04 0.15 0 0 -0.11 0.18 0.19 0.25 0.01 0.23 0.25 0.1 0.18 -0.02 0.06 0.16 -0.02 0.08 -0.09 0.02 -0.01 0.06 0.21 0.14 0.28 0.3 0.5 0.12 0 0 -0.01 0.11 -0.12 0.06 -0.14 0.17 0.15 0.13 0.31 -0.13 0 -0zm-3.3 -6.17l0.06 -0.21 -0.1 0.13 -0.24 -0.01 -0.09 -0.05 0.09 -0.03 0.05 -0.08 0.02 -0.36 0.12 -0.24 0.07 -0.03 -0 -0.08 -0.14 -0.02 -0.01 -0.07 0.07 -0.08 0.05 -0.26 0.26 -0.01 0.07 -0.17 0.13 -0.06 0.12 0.05 0.06 0.11 -0.1 0.26 0.01 0.22 -0.14 0.22 -0.23 0.22 0.1 0.17 -0.05 0.2 0.09 0.01 0.02 0.05 -0.16 0.13 0.01 0.07 0.07 0.03 -0.12 0.11 -0.11 -0.02 -0.16 0.62 -0.25 0.2 -0.04 -0.08 -0.13 0 0.14 -0.98 0.09 0.05 -0.02 0.11 0.15 -0.05 0 -0.07 0.23 -0.03 0 0zm-1.73 6.72l0.03 0.21 0.17 0.15 -0.01 0.06 -0.26 0.02 -0.04 -0.08 -0.13 0.04 -0.03 0.1 0.09 0.05 0.02 0.07 -0.08 0.08 -0.07 -0.02 -0.06 -0.12 -0.29 0.07 -0.2 -0.09 0.05 -0.15 0.04 0.05 0.17 -0.07 -0.08 -0.12 -0.03 -0.34 0.06 -0.08 0.08 0.01 0.1 0.12 0.36 -0.2 -0 0.08 0.12 0.16zm0.93 -1.29l-0.06 0.28 0.12 -0.01 0.16 -0.1 0.06 0.03 0.01 0.1 -0.31 0.27 0.01 0.23 -0.12 -0.01 -0.02 0.2 -0.06 -0.03 0.06 -0.28 -0.08 -0.24 -0.05 0.05 -0.11 -0.05 0.07 -0.14 0.13 0 -0.02 -0.22 0.21 -0.22 -0.03 -0.17 0.07 -0.18 0.03 0.24 -0.06 0.24zm1.49 -1.39l0.06 0.02 0.01 -0.06 -0.1 0 0.03 -0.07 0.11 -0.01 0.03 0.12 -0.03 0.05 0.06 0.06 -0.08 0.04 -0.01 0.08 -0.08 0.02 0.04 0.06 -0.24 0.41 -0.33 0.19 -0.07 -0.05 0.01 -0.1 0.07 0.08 0.08 -0.01 -0.05 -0.16 0.17 -0.09 -0.08 -0.11 0.14 -0.23 0.23 -0.23 0.06 0 0 0zm-2.36 2.26l0.15 0.09 -0.08 0.24 -0.14 -0.09 -0.01 -0.23 0.08 -0.02zm0.53 -0.07l-0.1 -0.05 -0.07 -0.12 0.13 0.02 -0.07 -0.1 0.04 -0.06 0.16 0.15 -0.02 0.22 -0.07 -0.06 -0 0zm0.48 -1.83l-0 0.08 0.06 0.03 -0.1 0.05 0.01 0.04 -0.21 -0.04 -0.01 -0.05 0.08 -0.07 0.1 -0.01 0.01 -0.06 0.06 0.03zm-0.72 2.09l-0.03 -0.07 -0.06 -0.01 -0 -0.08 -0.15 -0.1 0.06 -0.06 0.1 0.03 0.05 0.13 0.07 -0.15 0.03 0.01 0.02 0.08 -0.08 0.1 0.04 0.05 -0.04 0.07 0 0zm1.66 -2.41l0.1 -0.3 0 0.38 -0.13 -0.02 0.03 -0.06zm0.6 -0.46l-0.08 0.05 -0.2 -0.01 0.21 -0.17 0.1 0.06 -0.03 0.06 -0 0zm-1.82 1.24l-0.04 0.02 -0.07 -0.06 0.06 -0.1 0.08 0.05 0.11 -0.03 -0.03 0.12 -0.1 -0.01z" title="Nagasaki"/>
   <path id="JP-47" class="fil0 str0" d="M15.07 84.13l0.15 -0.15 0.38 -0.16 0.07 -0.14 -0.13 -0.11 -0.18 -0.02 -0.06 -0.15 0.06 -0.06 -0.07 -0.1 0.01 -0.11 0.09 0.05 0.2 -0.03 0.14 0.05 0.03 0.04 -0.06 0.13 0.06 0.09 0.17 -0.02 0.17 -0.11 0.06 -0.16 0.15 -0.07 -0 -0.06 0.26 -0.25 0.08 -0.18 -0.02 -0.11 0.04 -0.02 0.16 0.13 0.07 0.37 -0.32 0.47 -0.32 0.01 0.01 0.12 -0.09 -0.02 0.1 0.14 -0.21 0.13 -0.21 -0.07 0.06 0.12 -0.31 0.21 -0.06 0.12 -0.29 -0.08 -0.13 0.1 0.04 0.1 0.13 0.1 -0.01 0.09 0.18 0.19 -0.01 0.06 -0.18 -0.16 -0.12 0.03 -0.24 0.5 0.04 0.05 0.13 -0.02 0.05 0.1 -0.3 0.19 -0.08 0.11 -0.17 0.06 -0.07 -0.04 -0.07 -0.45 0.25 -0.29 0.17 -0.09 0.01 -0.05 -0.16 -0.38 0.01 -0.12 0.03 -0.03 0.04 0.07 0.28 -0.16 0 0zm6.31 -7.58l-0.2 0.26 -0.19 0.07 -0.09 -0.03 -0.05 0.2 0.07 0.14 -0.19 0.13 -0.03 0.11 -0.06 -0.05 -0.05 0.05 0.04 0.18 -0.3 -0.17 0.01 -0.09 -0.08 -0.16 -0.34 -0.05 -0.15 -0.12 0.32 -0.08 0.03 -0.03 -0.07 -0.08 0.17 -0.1 0.14 -0.01 0.13 -0.16 0.1 0.06 0.1 -0.13 0.19 0.02 0.05 -0.13 0.05 0.06 0.1 -0 0.04 -0.16 0.09 -0.09 0.09 0.03 0.19 -0.08 0.03 0.17 -0.04 0.05 0.07 0.03 0.13 -0.18 -0.1 -0.17 0.16 -0.11 0.02 0.16 0.09 0.06 -0.01 0.18 -0.18 0.13 -0.18 -0.02 -0.07 0.12 0 0zm-20.05 15.8l-0.04 0.17 -0.09 0.03 0.01 0.13 -0.07 -0.01 -0.02 0.08 -0.15 -0.07 -0.29 -0.03 -0.11 -0.08 -0.02 0.08 -0.13 -0.02 -0.07 -0.1 0.15 -0.16 0.09 0.03 0.05 0.08 0.03 -0.22 -0.03 -0.07 0.12 -0.17 0.13 0.11 0.22 0.03 0.23 0.17 0 0zm17.84 -13.74l-0.01 0.16 0.25 0.22 -0.17 0.37 -0.19 0.03 -0.2 -0.25 0.09 -0.16 -0.1 -0.28 0.08 -0.24 0.26 0.01 -0.01 0.14zm-17.03 13.39l0.19 -0.02 -0.01 -0.06 0.13 -0.19 0.08 0.05 0.06 -0.13 -0.05 -0.08 0.09 -0.1 0.01 -0.09 0.1 0.02 -0.03 0.14 -0.11 0.09 0.02 0.05 -0.09 0.09 -0.01 0.08 -0.11 0.1 0.03 0.2 -0.06 0.25 -0.3 0.07 -0.04 -0.08 -0.11 -0.05 0.09 -0.08 0.02 -0.1 -0.15 -0.07 -0.05 0.06 -0.06 -0.06 0.03 -0.09 0.15 0.03 -0 -0.14 0.19 0.13 -0 0zm3.84 -1.19l0.03 -0.05 0.02 0.07 0.06 -0.01 -0.1 -0.18 0.08 -0.06 0.03 -0.12 -0.1 -0.25 0.03 -0.03 0.25 0.37 0 0.09 0.34 0.14 0.07 0.12 -0.51 0.07 -0.17 -0.09 -0.03 -0.09 0 0zm11.97 -10.24l-0.11 0.1 -0.14 0.04 -0.1 -0.09 -0.03 -0.15 0.04 -0.07 0.22 0.03 0.34 -0.17 0.07 0.01 -0.29 0.3 0 0zm2.1 -3.17l0.07 0.03 0.05 -0.09 0.11 0.2 0.2 0.03 0.04 0.06 -0.05 0.1 -0.07 0.03 -0.1 -0.09 -0.03 0.12 -0.13 -0.15 -0.12 0.09 0.02 -0.25 -0.11 -0.07 -0.05 -0.12 0.12 -0.05 0.03 0.04 -0.05 0.04 0.06 0.09 -0 0zm-8.69 7.27l-0.16 -0.09 -0.05 -0.09 0.26 -0.07 0.14 0.17 -0.07 0.09 0.03 0.13 -0.12 -0.05 -0.03 -0.08 0 0zm11.58 -8.11l-0.22 0.34 -0.1 0.04 -0.09 -0.07 0.01 -0.13 0.11 -0.01 0.22 -0.21 0.07 0.04 0 -0zm-17.36 14.01l0 -0.12 0.06 0.07 0.04 -0.13 0.16 0.07 0.04 0.13 -0.22 0.05 -0.08 -0.06 0 0zm9.97 -8.73l0.16 -0.19 0.09 -0.02 -0.11 0.2 -0.26 0.21 0.12 -0.21zm-0.48 1.22l0.04 0.1 -0.23 0.01 -0.05 -0.04 0.04 -0.08 0.2 0.01zm-1.62 2l0.05 0.04 0 0.1 -0.05 0.04 0.02 0.09 -0.08 0.07 -0.01 -0.18 0.07 -0.17 0 0zm2.06 -2.88l0.07 0.08 -0.01 0.08 -0.05 0.01 -0.1 -0.11 0.09 -0.07 0 -0zm-13.96 10.56l0.1 0.04 -0.06 0.1 -0.08 -0.07 0.04 -0.07 0 0zm11.74 -7.77l0.08 0.04 -0.09 0.08 -0.09 -0.03 0.1 -0.09z" title="Okinawa"/>
   <path id="JP-27" class="fil0 str0" d="M42.06 51.07l0.07 -0.14 -0.12 -0.03 -0.01 -0.15 0.05 -0.09 0.13 -0.08 -0.08 -0.04 0 0 0.1 -0.22 -0.03 -0.26 -0.13 -0.22 0.08 -0.37 -0.08 -0.04 0.16 -0.09 -0.17 -0.03 -0.25 -0.15 0.04 -0.06 -0.01 -0.17 -0.07 -0.04 0.05 -0.06 0.08 0.01 0 0 0.03 0.13 0.39 0.11 0.01 0.21 0.04 -0.02 0.12 0.13 0.14 -0.05 -0.07 -0.08 0.05 -0.12 0.14 0 0 0.11 0.22 0.21 0.05 0.19 0.19 0.21 -0.05 0.11 0 0 -0.06 -0.01 -0.03 0.24 -0.09 0.08 -0.09 0.43 0.07 0.01 0.04 0.08 -0.1 0.16 0.1 0.23 0.01 0.21 -0.03 0.2 -0.11 0.07 0 0 -0.23 0.03 -0.22 0.14 -0.29 -0.03 -0.37 0.13 -0.29 0.02 -0.22 0.14 -0.19 0.03 -0.08 -0.01 -0.02 -0.16 -0.05 -0.02 0 0 0.46 -0.15 0.33 -0.3 0.17 -0.27 0.21 -0.19 -0 0z" title="Osaka"/>
   <path id="JP-33" class="fil0 str0" d="M37.11 50.88l-0.25 0.2 -0.08 0.31 -0.35 -0.1 -0.09 0.06 -0.33 -0.06 -0.11 -0.14 -0.29 0.05 -0.05 0.06 0.04 0.04 -0.4 0.14 -0.12 -0.15 0 0 -0.02 -0.31 -0.22 -0.3 0 -0.25 -0.07 -0.34 0.05 -0.2 -0.29 -0.36 0 -0.29 0.08 -0.22 -0.18 -0.22 0 0 0.06 -0.04 0.04 -0.15 0.07 0.04 0.33 -0.11 -0.06 -0.21 0.05 -0.07 0.14 0.06 0.22 -0.09 0.04 -0.09 -0.04 -0.09 0.17 -0.04 0.14 -0.44 0.31 0.11 0.23 0 0.19 0.13 0.09 0.16 0.12 -0.09 0.04 -0.1 0.21 -0.09 0.01 -0.09 0.27 -0.08 -0.03 0.16 0.03 0.03 0.14 0.04 0.17 -0.03 0.12 0.11 0.04 0.08 -0.02 0.11 0.09 0.06 -0.03 0.13 0.09 0.11 0.27 -0.17 0.1 0.05 0.12 -0.02 0.25 -0.21 0.05 0.04 0 0 -0.08 0.14 0.11 0.12 -0.01 0.14 -0.12 -0.01 -0.04 0.05 -0.04 0.2 -0.11 0.04 -0.01 0.17 -0.17 0.1 0.04 0.11 -0.03 0.16 -0.06 0.06 0.12 0.15 -0.13 0.24 0.03 0.08 0.19 0.17 0.1 0.25 0 0 -0.09 0.06 -0.04 -0.05 -0.12 -0 -0.32 0.36 -0.07 0.16 -0.18 0.11 -0.23 0.01 -0.09 0.07 0 -0zm0.95 0.51l-0.07 0.01 0.12 -0.13 -0.15 0.04 -0.12 0.23 -0.04 -0.11 0.07 -0.09 -0.02 -0.04 -0.09 -0.05 -0.21 0.09 -0.04 -0.04 0.08 -0.15 0.66 -0.24 -0.02 0.08 0.05 0.06 -0.07 0.4 -0.07 -0.09 -0.08 0.03 0 -0z" title="Okayama"/>
   <path id="JP-44" class="fil0 str0" d="M25.82 57.11l0.06 -0.04 0.09 -0.25 -0.15 -0.13 0.01 -0.11 -0.06 -0.03 0.02 -0.07 0.09 -0.05 0.03 -0.11 -0.05 -0.17 -0.05 -0.03 0.08 -0.12 0.09 -0.02 0.05 -0.3 0.29 -0.25 0.17 -0.04 0.17 0.05 0.34 -0.02 -0.02 -0.08 0.07 -0.09 -0.05 -0.14 0.03 -0.07 0 0 0.06 -0.08 0.32 0.16 0.46 0.02 0.02 -0.08 0.18 -0.16 0.09 -0.17 0.3 -0.09 0.29 0.15 0.22 0.3 0.05 0.19 -0.02 0.32 -0.06 0.03 -0.07 0.22 -0.25 -0.07 -0.03 0.05 0.09 0.12 -0.02 0.04 -0.16 0.02 -0.04 0.11 -0.13 -0.02 -0.04 -0.08 -0.13 0.03 -0.02 0.13 0.06 0.27 0.27 0.09 0.34 -0.15 0.24 0.17 0.53 -0.12 -0.24 0.37 -0.09 0.23 0.13 0.06 0.19 -0.09 0.06 0.05 -0.12 0.06 -0.07 0.12 0.18 0.05 0.05 0.01 0.05 -0.13 0.11 0.15 0.06 -0.03 -0.01 -0.09 0.05 -0.03 0.01 0.14 -0.09 0.06 -0.19 -0.02 -0.14 0.25 0.02 0.05 0.1 0.03 0.04 0.08 0.13 -0.05 0.08 0.07 0.3 0.01 0.01 0.05 -0.38 0.05 0.03 0.14 0.11 -0 -0.15 0.14 0.12 0.13 -0.26 0.18 -0.17 -0.08 -0.04 0.28 0 0 -0.1 -0 0.05 -0.28 -0.3 -0.11 -0.14 0.03 -0.03 0.13 -0.09 0.1 -0.4 -0 -0.09 0.08 -0.16 -0.05 -0.03 -0.05 0.03 -0.08 -0.15 -0.15 -0.36 0.13 -0.07 -0 -0.09 -0.1 0 0 -0.25 -0.23 -0.04 -0.41 -0.11 -0.29 -0.15 -0.14 -0.03 -0.21 -0.19 -0.2 -0.25 -0.05 -0.18 0.1 -0.02 0.13 0.15 0.22 -0.03 0.15 -0.09 0.11 -0.07 -0 -0.07 -0.11 -0.11 -0.01 -0.11 -0.14 -0.16 -0.03 0 -0.06 0 -0z" title="Oita"/>
   <path id="JP-41" class="fil0 str0" d="M22.13 56.15l0.12 0.17 0.03 -0.17 -0.03 -0.03 0.12 -0.25 -0.31 -0.24 0.09 -0.03 -0.05 -0.06 0.05 -0.06 0.07 0.03 0.06 0.14 0.05 -0.04 -0.1 -0.21 -0.01 -0.06 0.1 -0.01 -0.04 -0.16 0.12 0.09 0.06 -0.01 0 -0.05 0.12 -0.01 0.01 0.06 0.13 0.11 -0.11 0.13 0.11 0.1 0.21 0.03 0.05 -0.03 -0.01 -0.06 0 0 0.47 0.01 0.12 -0.06 0.15 0.04 0.08 -0.04 0.31 0.19 0.14 0.03 0.11 0.13 0.18 -0.17 0.13 -0.04 0.07 0.04 -0 0.4 -0.09 -0.01 -0.09 0.15 -0.33 0.26 -0.11 0.19 -0.03 0.22 0 0 -0.24 -0 -0.04 -0.09 -0.16 -0.1 -0.03 0.12 -0.32 0.26 0.32 0.55 0.01 0.07 -0.08 0.01 0 0 -0.5 -0.12 -0.28 -0.3 -0.21 -0.14 0.01 -0.06 0.09 -0.02 0.02 -0.08 -0.06 -0.16 -0.18 0.02 -0.25 -0.1 -0.01 -0.23 -0.19 -0.25 0.11 -0.18 0 0 0.04 0.04 -0 -0zm-0.29 -1.62l-0.11 -0.01 -0.07 -0.2 -0.07 0.09 -0.04 -0.13 0.06 -0.09 -0.03 -0.07 0.19 -0.24 0.25 0.09 -0.05 0.15 0.09 0.08 -0.1 0.05 0.14 0.05 -0.03 0.1 -0.2 0.01 -0.04 0.12 0 -0zm0.04 1.2l0.07 -0.18 0.14 0.17 -0.11 -0.01 -0.01 0.08 -0.09 0.04 -0.05 -0.05 0.06 -0.04z" title="Saga"/>
   <path id="JP-25" class="fil0 str0" d="M45.58 48.1l0.01 0.15 0.13 0.13 -0.13 0.45 -0.01 0.25 -0.14 0.2 -0.04 0.17 -0.42 0.2 -0.24 -0.12 -0.18 0 -0.06 -0.07 -0.08 0.07 0.01 0.05 0.11 0.01 0.01 0.05 -0.14 0.11 0.01 0.09 -0.24 0.1 0 0 -0.03 -0.07 0.05 -0.05 -0.11 -0.11 -0.07 0.03 -0.05 -0.07 -0.06 0.01 -0.02 -0.16 -0.13 0.07 -0.13 -0.08 0.04 -0.19 -0.16 -0.27 -0.05 -0.21 0.06 -0.04 0.06 -0.31 -0.08 -0.38 0.07 -0.26 -0.08 0 -0.21 -0.33 0 0 0.08 -0.13 0.07 -0.02 0.01 -0.09 0.12 0 0.06 0.07 0.1 -0.05 0.19 -0.5 0.14 0.14 0.08 -0.02 0.08 -0.16 0.23 -0.02 0.06 -0.19 0.2 0.06 0.03 -0.13 -0.15 -0.32 0.06 -0.12 0.12 -0.02 0.33 0.17 0 0 0.05 0.19 0.12 0.01 -0.02 0.29 0.14 0.05 0.06 -0.09 0.1 0.13 -0.04 0.16 0.11 0.12 -0.02 0.18 0.1 0.15 -0.1 0.08 -0.01 0.24 -0.06 0.09 -0 0.17 -0.06 0.04 0.13 0.12z" title="Shiga"/>
   <path id="JP-32" class="fil0 str0" d="M31.01 48.78l0.05 -0.14 0.22 -0.17 0.01 -0.12 0.09 -0.12 0.45 -0.32 0.26 -0.1 0.1 -0.09 0.07 -0.14 0.02 -0.29 -0.17 -0.07 0.02 -0.07 0.2 -0.08 0.09 0.05 0.15 -0.03 0.02 -0.04 -0.11 -0.06 0.26 -0.05 0.04 -0.06 0.38 -0.09 0.18 0.01 -0.01 -0.12 0.21 0.02 0.07 -0.17 0.17 -0.12 0.16 0.19 0.19 -0.03 0.07 -0.06 0.39 0.06 -0.22 0.05 -0.07 0.09 0.09 0.18 0.21 0.12 0 0 -0.03 0.44 -0.08 0.11 0.05 0.29 -0.56 0.25 0 0.05 0.11 0.02 0.04 0.12 -0.16 0.13 -0.03 0.28 0 0 -0.1 -0.04 -0.26 0.08 -0.18 -0.14 -0.14 0.11 -0.21 -0.13 -0.07 0.01 -0.43 0.6 -0.21 0.04 -0.15 0.18 0.07 0.08 0.12 0.04 0 0.16 -0.32 0.03 -0.26 0.19 -0.29 -0.02 -0.04 -0.07 -0.07 0.03 0.01 0.04 -0.09 0.08 -0.09 -0.08 -0.22 0.02 -0.04 0.08 -0.07 -0.09 -0.14 -0.02 -0.06 0.21 -0.26 0.15 -0.05 0.09 0.1 0.06 -0.13 0.19 -0.04 0.32 -0.11 0.12 -0.11 0.03 -0.05 0.12 0.09 0.11 0 0 -0.15 0.08 -0.09 0.13 -0.03 0.06 0.08 0.16 -0.2 0.28 -0.12 -0.11 -0.17 0.13 -0.19 0.02 -0.16 -0.15 -0.03 -0.14 0.1 -0.28 -0.34 0.01 -0.11 -0.3 0.12 -0.12 0 -0.15 0.08 -0.03 -0.15 -0.46 0 0 0.21 0.01 0.27 -0.08 0.24 -0.27 0.2 -0.15 0.04 -0.12 0.11 -0.04 0.21 -0.22 0.13 -0.22 0.51 -0.43 0.28 -0.11 0 0zm3.26 -4.92l-0.07 -0.09 -0.09 -0.01 0.03 -0.15 -0.05 -0.03 0.01 -0.16 0.16 -0.18 0.19 -0.06 0.14 0.06 0.23 0.26 -0.05 0.27 -0.08 0.03 -0.02 -0.1 -0.03 0.08 -0.1 0.02 0.11 0.03 0.02 0.1 -0.05 0.01 -0.32 0.01 0.03 -0.08 -0.06 -0.02 0 0zm-8.28 -5.97l0.06 -0.03 0.04 0.04 -0.04 0.06 0.02 0.17 -0.14 0.16 -0.23 -0.1 -0.06 -0.17 0.11 -0.07 0.25 -0.05 0 0zm7.75 6.17l0.05 0.02 -0.02 0.06 -0.17 0.08 0.06 0.09 -0.04 0.11 -0.08 -0.01 -0.07 -0.13 -0.06 -0.01 -0.03 0.04 0.08 0.2 -0.19 -0.12 0.11 -0.22 0.13 -0.01 -0 -0.08 0.12 0.03 0.11 -0.06zm0.21 0.25l-0.24 0.23 0.04 -0.15 -0.06 -0.14 0.05 -0.03 0.05 0.05 0.01 -0.09 0.07 -0.01 0.07 0.04 0.01 0.11zm-0.47 0.23l0.24 0.1 -0.03 0.06 -0.21 -0.03 -0.01 -0.13 0 0z" title="Shimane"/>
   <path id="JP-11" class="fil0 str0" d="M53.79 45.1l0.04 -0.09 -0.09 -0.19 0.02 -0.08 0 0 0.14 -0.18 0.22 -0 0.17 -0.18 0.27 -0.07 0.08 -0.14 0.28 -0.01 0.08 -0.14 0 -0.17 0.22 -0.35 0.13 0.01 0.3 0.15 0.11 -0.03 0.17 0.05 0.15 -0.04 0.33 0.24 0.46 -0.09 0.09 0.09 0.09 -0.03 0.06 -0.1 0 0 0.15 0.07 0 0 -0.03 0.16 0.15 0.35 0.07 0.02 0.07 -0.06 0 0 0.13 0.25 0.01 0.19 0.3 0.58 -0.04 0.24 -0.06 0.05 0 0 -0.17 0.01 -0.03 -0.08 -0.09 0.03 -0.08 -0.05 -0.07 0.13 -0.32 -0.06 -0.12 0.14 -0.1 -0.05 -0.16 0.07 -0.05 -0.16 -0.29 0.14 -0.22 0.01 -0.1 -0.11 -0.14 -0.03 -0.07 -0.16 -0.38 -0.03 -0.19 -0.1 -0.3 -0.05 -0.13 -0.1 -0.25 0.1 -0.03 0.08 0 0 -0.2 0.05 -0.12 -0.1 -0.21 -0.04 -0.05 -0.12 -0.18 -0.04z" title="Saitama"/>
   <path id="JP-22" class="fil0 str0" d="M55.14 49.58l-0.19 0.37 -0.22 0.18 -0.09 0.23 0.05 0.14 -0.08 0.03 -0.09 -0.04 -0.07 0.03 -0.04 0.09 -0.23 0.13 -0.07 -0.03 -0.19 -0.18 0.04 -0.05 -0.03 -0.07 -0.13 -0.06 0 -0.15 0.13 -0.13 -0.09 -0.19 0.05 -0.04 -0.04 -0.32 0.12 -0.11 -0.1 -0.28 0.09 -0.22 0.37 0.03 0.05 -0.13 -0.32 -0.29 -0.42 -0.09 -0.49 0.15 -0.16 0.28 0.07 0.09 -0.04 0.11 -0.55 0.3 -0.14 0.24 0.03 0.18 -0.12 0.22 -0.27 0.21 -0.1 0.25 0 0.13 0.13 0.13 -0.02 0.04 -0.8 -0.28 -0.37 -0.01 -0.33 0.08 -0.48 -0.11 -0.64 -0.01 0 0 -0.03 -0.42 0.08 -0.22 0.49 -0.28 0.23 -0.35 0.01 -0.19 0.26 -0.36 0.08 -0.04 -0.01 -0.08 0.1 -0.1 -0.09 -0.09 0.06 -0.18 0 0 0.19 -0.02 0.08 -0.17 0.09 -0 0.04 -0.08 0.23 -0.12 0.22 -0.18 0.3 -0.11 0.03 -0.13 -0.1 -0.12 0 -0.12 0.13 -0.05 -0.08 -0.24 0.07 -0.1 -0.06 -0.05 0.1 -0.12 0.06 0.03 0.1 -0.29 0 0 0.17 0.57 -0.07 0.21 0.04 0.19 -0.08 0.17 0.06 0.23 0.12 0.09 0.14 -0.09 0.14 0.06 0.12 0.48 0.12 0.09 0.22 0.02 0.13 -0.11 -0.07 -0.48 0.08 -0.11 -0.01 -0.31 0.18 -0.16 0.1 0.23 0.19 -0.02 0.08 0.17 0.5 -0.08 0.07 -0.05 0.13 0.01 0.12 -0.07 0 0 0.27 -0.01 0.03 0.04 0.06 0.27 -0.05 0.17 -0.1 0.11 0.04 0.27 0.13 0.1 0.02 0.12 0.27 0.04 0 0 -0.12 0.17 -0.03 0.18 0.11 0.04 -0.02 0.24 0.19 0.15 -0.02 0.28 -0.1 0.08z" title="Shizuoka"/>
   <path id="JP-09" class="fil0 str0" d="M59.21 40.59l-0.02 0.36 0.05 0.18 -0.04 0.23 0.11 0.18 -0.02 0.06 -0.17 0.04 -0.05 0.07 0.1 0.35 0 0.33 -0.17 0.33 -0.04 0.21 -0.12 0.04 -0.05 -0.07 -0.08 0 -0.07 0.08 -0.12 -0.04 -0.01 0.09 -0.05 0.02 -0.28 0.01 -0.02 0.08 -0.18 0.08 -0.02 0.16 -0.2 -0.05 -0.1 0.3 -0.3 0.16 -0.13 0.01 0 0 -0.15 -0.07 0 0 -0.09 -0.14 0.02 -0.05 -0.07 -0.04 -0.2 0.03 -0.13 -0.08 -0.18 0.05 -0.2 -0.17 0.01 -0.1 -0.19 -0.14 0.03 -0.17 0.21 -0.28 -0.06 -0.14 0.07 -0.22 0.15 -0.12 -0.06 -0.12 -0.22 0.01 -0.26 -0.13 0.03 -0.25 0.11 -0.16 -0.05 -0.21 0.18 -0.25 -0.18 -0.08 0.1 -0.28 0 0 0.17 -0.08 0.13 -0.18 0.24 -0.04 0.17 -0.13 0.11 -0.02 0.04 -0.08 0.14 -0.04 0.05 -0.07 0.5 -0.16 0.03 -0.16 0.24 -0.11 0.44 0.05 0.43 0.18 0.18 0.18 0.04 0.17 0.15 -0.01 -0.03 0.33 0.06 0.06z" title="Tochigi"/>
   <path id="JP-13" class="fil0 str0" d="M56.13 50.37l-0.12 -0.07 -0.03 -0.07 -0.01 -0.25 0.04 -0.09 0.22 0.08 0.09 0.17 -0.03 0.27 -0.17 -0.03 -0 0zm-0.38 1.11l-0.06 0.41 -0.09 -0.07 -0.01 -0.09 0.16 -0.25zm-0.26 0.39l0.04 0.05 -0.11 0.04 0.06 -0.08 0 0zm2.22 -5.59l-0.15 -0.01 -0.04 -0.17 -0.09 0.08 -0.05 0.28 0.06 0.13 0.04 -0.03 0.08 0.13 -0.16 -0.04 -0.17 0.05 0 0 -0 -0.07 -0.09 -0.04 -0.06 -0.12 -0.48 -0.23 -0.14 0.16 -0.09 -0.08 -0.04 0.04 0.14 0.11 -0.03 0.36 -0.05 0.01 -0.24 -0.34 -0.39 -0.13 -0.15 0.03 -0.11 -0.18 -0.11 0.01 -0.08 -0.1 -0.11 -0.02 0 0 -0.38 -0.21 -0.28 -0.58 0 0 0.03 -0.08 0.25 -0.1 0.13 0.1 0.3 0.05 0.19 0.1 0.38 0.03 0.07 0.16 0.14 0.03 0.1 0.11 0.22 -0.01 0.29 -0.14 0.05 0.16 0.17 -0.07 0.1 0.05 0.12 -0.14 0.32 0.06 0.07 -0.14 0.08 0.05 0.09 -0.03 0.03 0.08 0.17 -0.01 0 0 0.19 0.41 0 0 0.06 0.14 -0.1 0.06 0.07 0.07 -0.15 0.1 -0.21 -0.08zm-1.01 6.77l0.05 -0.08 -0.01 -0.1 -0.09 -0.1 -0.17 0.02 -0.07 0.18 0.03 0.11 0.12 0.02 0.13 -0.06 0 0zm0.81 4.19l0.17 0.11 0.03 -0.13 0.07 -0.02 -0.04 -0.16 -0.1 -0.01 -0.16 -0.16 -0.09 0 -0.03 0.13 0.05 0.1 0.08 0.02 0.02 0.11 -0 0zm0 0l0.17 0.11 0.03 -0.13 0.07 -0.02 -0.04 -0.16 -0.1 -0.01 -0.16 -0.16 -0.09 0 -0.03 0.13 0.05 0.1 0.08 0.02 0.02 0.11 -0 0z" title="Tokyo"/>
   <path id="JP-36" class="fil0 str0" d="M39.58 54.06l-0.38 0.16 -0.16 0.14 -0.03 0.09 -0.22 0.16 -0.21 0.13 -0.17 0.03 -0.12 0.32 -0.16 -0.01 -0.04 0.08 0.05 0.03 -0.05 0.03 0 0 -0.38 -0.04 -0.14 -0.21 -0.02 -0.08 0.08 -0.1 -0.04 -0.14 -0.35 -0.01 -0.02 -0.36 -0.09 -0.23 -0.13 0.03 -0.04 -0.08 -0.07 0.02 -0.08 0.15 -0.11 0.04 -0.14 -0.06 -0.12 -0.16 -0.33 0.03 -0.24 -0.09 -0.07 -0.1 0 0 0.1 -0.16 0 -0.19 -0.05 -0.09 0.05 -0.12 0 0 0.11 -0.04 0.03 -0.09 0.18 -0.15 0.1 0.03 0.05 -0.09 0.14 -0.05 0.25 -0.04 0.15 0.17 0.08 0 0.21 -0.16 0.22 -0.03 0.06 -0.06 -0.01 -0.08 0.13 -0.1 0.31 -0.03 0.29 0.05 0.05 -0.05 0.2 0.1 0.08 -0.04 0.03 -0.17 0 0 0.51 -0.14 0 0.17 0.13 0.09 -0.13 0.53 0.02 0.2 0.09 0.1 0.06 -0.1 0.11 0.19 0.11 0.06 -0.09 0.07 0.13 0.03 -0.03 0.08 -0.23 0.17 -0.02 0.06 0.05 0.04 0.36 0.01 0.03 0.04 -0.08 0.04 -0 0z" title="Tokushima"/>
   <path id="JP-31" class="fil0 str0" d="M34.62 47.01l0.26 0.05 0.08 -0.03 0.08 -0.15 0.18 -0.09 0.32 -0.07 0.26 0.1 0.32 0.03 0.61 -0.04 0.12 -0.07 0.25 0.03 0.33 -0.04 0.5 -0.13 0.1 -0.14 0.14 -0.01 0.02 -0.07 0.11 -0.02 0 0 0.12 0.09 0.07 0.14 -0.02 0.18 0.09 0.34 0.13 0.06 -0.02 0.19 0.13 0.17 -0.03 0.08 0.05 0.21 -0.3 0.21 -0.1 -0.05 0 0 -0.05 -0.04 -0.25 0.21 -0.12 0.02 -0.1 -0.05 -0.27 0.17 -0.09 -0.11 0.03 -0.13 -0.09 -0.06 0.02 -0.11 -0.04 -0.08 -0.12 -0.11 -0.17 0.03 -0.14 -0.04 -0.03 -0.03 0.03 -0.16 -0.27 0.08 -0.01 0.09 -0.21 0.09 -0.04 0.1 -0.12 0.09 -0.09 -0.16 -0.19 -0.13 -0.23 -0 -0.31 -0.11 -0.14 0.44 -0.17 0.04 0.04 0.09 -0.04 0.09 -0.22 0.09 -0.14 -0.06 -0.05 0.07 0.06 0.21 -0.33 0.11 -0.07 -0.04 -0.04 0.15 -0.06 0.04 0 0 -0.08 -0.09 -0.38 0.06 0 -0.05 0 0 0.03 -0.28 0.16 -0.13 -0.04 -0.12 -0.11 -0.02 -0 -0.05 0.56 -0.25 -0.05 -0.29 0.08 -0.11 0.03 -0.44 -0 -0z" title="Tottori"/>
   <path id="JP-16" class="fil0 str0" d="M48.07 41.25l0.24 0.12 0.18 -0.04 0.35 0.02 0.21 -0.2 0.06 -0.18 -0.01 -0.22 0.07 -0.13 0.24 -0.13 0.5 -0.11 0 0 0.13 0.15 0.15 0.04 0.01 0.22 0.07 0.11 0 0.14 0.11 0.3 0 0 -0.04 0.75 -0.21 0.13 -0.02 0.14 0.04 -0.01 0.02 0.09 -0.11 0.03 -0.07 0.1 0 0.13 -0.08 0.15 -0.16 0.15 0 0 -0.17 -0.01 -0.15 -0.15 -0.13 0.06 -0.2 -0.06 -0.05 -0.14 -0.24 0.14 -0.04 -0.01 -0.01 -0.16 -0.11 -0.01 -0.26 0.12 -0.04 -0.08 -0.1 0 -0.37 0.36 -0.04 0.21 -0.25 0.22 -0.06 -0.01 0.05 -0.13 -0.06 -0.14 -0.17 -0.09 -0.06 0.06 -0.04 -0.11 -0.14 0.1 -0.05 0.19 -0.1 0.01 0 0 -0.03 -0.16 0.06 -0.08 -0.08 -0.34 0.14 -0.53 -0.08 -0.1 -0.03 -0.2 0.14 -0.22 -0.04 -0.08 0.03 -0.17 0.1 -0.12 0.11 -0.63 0.25 -0.25 0.13 -0.05 0.22 0.02 0 0 -0.24 0.41 0.26 0.28 0.12 0.09 0.1 -0.01z" title="Toyama"/>
   <path id="JP-30" class="fil0 str0" d="M43.48 55.37l-0.1 0.07 -0.06 0.12 0.02 0.13 -0.09 0.01 -0.04 -0.06 0.06 -0.13 -0.14 0.02 -0.34 -0.13 -0.42 -0.07 -0.36 -0.22 -0.07 -0.13 0.03 -0.14 -0.23 -0.11 0.18 -0.1 0.04 -0.1 -0.26 -0.22 -0.47 -0.22 -0.12 -0.25 -0.14 -0.07 -0.2 0.06 0.04 -0.42 0.28 -0.11 0.09 -0.11 -0.13 -0.14 -0.2 -0.04 0.11 -0.12 0.05 -0.15 0.16 0.01 0.05 -0.06 -0.02 -0.14 -0.14 -0.04 -0.08 -0.22 -0.18 -0.19 0.02 -0.09 0.06 -0.03 0 0 0.05 0.02 0.02 0.16 0.08 0.01 0.19 -0.03 0.22 -0.14 0.29 -0.02 0.37 -0.13 0.29 0.03 0.22 -0.14 0.23 -0.03 0 0 0.07 0.12 0.04 0.31 0.16 0.09 0.04 0.12 -0.07 0.11 -0.15 -0.07 -0.1 0.05 0 0.13 -0.07 0.1 -0.27 0.26 -0.02 0.1 0.21 0.17 -0.01 0.1 0.1 0.04 0.05 0.09 -0.13 0.33 0.07 0.02 0.04 0.1 0.21 -0.12 0.12 0 0.12 0.07 0.36 -0.06 0 0 -0.01 0.35 0.31 0.35 0.23 0.05 0 0 -0.06 0.08 -0.03 0.21 -0.17 0.05 -0.04 0.15 0.13 0.05 -0.01 0.06 -0.37 0.26 -0.09 0.02 0 -0z" title="Wakayama"/>
   <path id="JP-35" class="fil0 str0" d="M28.18 53.21l-0.11 -0.07 -0.06 0.16 -0.13 0.06 -0.05 -0.04 0.03 -0.11 -0.08 -0.03 -0.14 0.26 -0.31 0.19 -0.39 -0.14 0.01 -0.14 -0.41 -0.23 -0.12 0.07 -0.06 0.16 -0.33 0.32 -0.03 -0.11 0.08 -0.16 -0.01 -0.3 -0.19 -0.27 0.02 -0.11 0.14 -0.02 0.1 -0.2 -0.04 -0.22 -0.19 -0.21 0.05 -0.03 0.07 -0.25 0.48 -0.07 -0.05 -0.09 -0.22 -0.07 0.05 -0.15 0.17 0.13 0.19 -0.06 0.09 0.03 0.2 0.2 0.53 -0.05 0.11 -0.15 0.18 0.01 0.26 -0.3 -0.05 -0.12 0.06 -0.1 0.13 0.03 0.13 -0.13 0.06 -0.08 0.01 -0.15 0.08 -0.02 0.07 -0.16 0.04 -0.04 0.17 0.05 0.08 -0.09 0 0 0.15 0.46 -0.08 0.03 -0 0.15 -0.12 0.12 0.11 0.3 0.34 -0.01 -0.1 0.28 0.03 0.14 0.16 0.15 0.19 -0.02 0.17 -0.13 0.12 0.11 0.2 -0.28 -0.08 -0.16 0.03 -0.06 0.09 -0.13 0.15 -0.08 0 0 0.05 0.12 -0.03 0.15 0.04 0.24 0.17 0.14 -0.01 0.11 0.09 0.26 0.23 0.06 0.06 -0.03 0 0 0.04 0.09 -0.05 0.09 0.07 0.08 -0.18 0.16 0.04 0.53 -0.1 0.17 -0.2 0.02 0 0.29 0.1 0.12 -0.06 0.11 -0.09 -0.19 -0.26 -0.13 -0.07 0.03 -0.65 -0.5 -0.08 0.11 -0.01 0.1 -0.16 -0.04 0.2 -0.21 -0.22 -0.13 -0.09 -0.01 -0.33 0.1 -0.38 0.17 -0.1 -0.11 0 0zm2.72 0.65l-0.16 -0.03 -0.09 0.08 -0.1 -0.16 -0.01 -0.14 0.21 -0.17 0.24 0.2 0.18 0.01 0.23 -0.15 0.2 0.01 -0.23 0.17 -0.13 -0 -0.03 0.06 0.03 0.15 -0.16 0.02 -0.02 -0.15 -0.08 -0.02 -0.1 0.02 0.02 0.1 0 0z" title="Yamaguchi"/>
   <path id="JP-19" class="fil0 str0" d="M55.21 46.12l-0 0.47 -0.06 0.13 -0.09 0.09 -0.13 0.02 -0.08 0.12 -0.32 0.15 -0.07 0.2 0 0 -0.12 0.07 -0.13 -0.01 -0.07 0.05 -0.5 0.08 -0.08 -0.17 -0.19 0.02 -0.1 -0.23 -0.18 0.16 0.01 0.31 -0.08 0.11 0.07 0.48 -0.13 0.11 -0.22 -0.02 -0.12 -0.09 -0.12 -0.48 -0.14 -0.06 -0.14 0.09 -0.12 -0.09 -0.06 -0.23 0.08 -0.17 -0.04 -0.19 0.07 -0.21 -0.17 -0.57 0 0 -0.13 -0.32 0.18 -0.2 -0.16 -0.15 0.17 -0.35 0.04 -0.02 0.13 0.11 0.32 -0.49 0.26 0.1 -0 0.12 0.09 0.1 0.09 -0.02 0.04 -0.07 0.32 0.01 0.1 0.21 0.17 -0 0.13 -0.17 0.07 0 0 0 0.18 0.04 0.05 0.12 0.21 0.04 0.12 0.1 0.2 -0.05 0 0 0.28 0.58 0.38 0.21z" title="Yamanashi"/>
   <path id="JP-06" class="fil0 str0" d="M59.29 35.96l-0.05 0.31 0.01 0.36 0.1 0.07 -0.24 0.29 -0.23 -0.05 -0.13 0.1 -0.26 -0.2 -0.22 0.08 -0.17 -0.3 -0.06 0.06 -0.11 0.01 -0.11 -0.07 -0.17 0.1 -0.11 -0.12 -0.14 0.03 0 0 -0.08 -0.14 -0.08 0.02 -0.12 -0.06 -0.12 -0.21 0.11 -0.57 0.12 -0.09 -0.06 -0.14 0.06 -0.15 -0.03 -0.24 0.09 -0.15 0.28 0.04 0.25 -0.15 0.14 -0.29 -0.21 -0.22 -0.33 -0.09 -0.14 -0.2 0.07 -0.36 -0.04 -0.05 -0.27 -0.06 -0.33 -0.17 0 0 0.21 -0.55 0.31 -0.27 0.21 -0.27 0.2 -0.73 0.11 -0.19 0.13 -0.48 -0.03 -0.1 0 0 0.45 0.07 0.07 -0.08 0.18 -0.04 0.04 0.21 0.13 0.03 0.14 0.13 0.55 0.17 0.19 -0.05 0.06 0.14 0.19 0.01 0.1 0.32 0.27 0.1 0.04 0.08 0 0 -0.04 0.06 0.19 0.18 0.03 0.19 0.15 0.08 -0.12 0.2 0.04 0.17 -0.08 0.21 -0.07 0.02 -0.12 -0.06 -0.02 0.04 0.11 0.25 0.01 0.1 -0.07 0.12 0.05 0.16 0.11 0.07 0.04 0.13 -0.11 0.29 -0.2 0.21 0.03 0.11 -0.19 0.24 -0.03 0.18 0.04 0.22 -0.2 0.28 -0.03 0.18 -0.18 0.1 -0.31 0 0.01 0.36 -0 -0z" title="Yamagata"/>
  </g>
  <circle class="fil1 str1" cx="29.81" cy="51.45" r="0.46"/>
  <circle class="fil1 str1" cx="38.33" cy="49.53" r="0.46"/>
  <circle class="fil1 str1" cx="42.37" cy="48.59" r="0.46"/>
  <circle class="fil1 str1" cx="41.32" cy="50.1" r="0.46"/>
  <circle class="fil1 str1" cx="42.67" cy="50.1" r="0.46"/>
  <circle class="fil1 str1" cx="53.69" cy="46.97" r="0.46"/>
  <circle class="fil1 str1" cx="57.27" cy="45.45" r="0.46"/>
 </g>
</svg>
