<?xml version="1.0" encoding="UTF-8"?>
<!DOCTYPE svg PUBLIC "-//W3C//DTD SVG 1.0//EN" "http://www.w3.org/TR/2001/REC-SVG-20010904/DTD/svg10.dtd">
<!-- Creator: CorelDRAW 2020 (64-Bit) -->
<svg xmlns="http://www.w3.org/2000/svg" xml:space="preserve" width="31.9713mm" height="10.2445mm" version="1.0" style="shape-rendering:geometricPrecision; text-rendering:geometricPrecision; image-rendering:optimizeQuality; fill-rule:evenodd; clip-rule:evenodd"
viewBox="0 0 152.52 48.87"
 xmlns:xlink="http://www.w3.org/1999/xlink"
 xmlns:xodm="http://www.corel.com/coreldraw/odm/2003">
 <defs>
  <style type="text/css">
   <![CDATA[
    .fil0 {fill:white;fill-rule:nonzero}
   ]]>
  </style>
 </defs>
 <g id="Capa_x0020_1">
  <metadata id="CorelCorpID_0Corel-Layer"/>
  <g id="_2629589736368">
   <path class="fil0" d="M72.76 13.09c-0.77,-2.18 -1.88,-4.09 -3.33,-5.73 -1.52,-1.66 -3.33,-2.94 -5.45,-3.84 -2.11,-0.9 -4.48,-1.35 -7.09,-1.35 -2.52,0 -4.8,0.45 -6.85,1.35 -2.04,0.9 -3.79,2.17 -5.24,3.8 -1.38,1.56 -2.43,3.4 -3.17,5.5 -0.74,2.1 -1.1,4.33 -1.1,6.69l0 8.14c-0,0 -0,0 -0.01,0l0 7.7c0,0.96 -0.18,1.86 -0.54,2.7 -0.36,0.84 -0.87,1.58 -1.52,2.21 -0.63,0.63 -1.37,1.13 -2.22,1.49 -0.85,0.36 -1.76,0.54 -2.71,0.54 -0.96,0 -1.85,-0.18 -2.68,-0.53 -0.83,-0.35 -1.56,-0.85 -2.19,-1.51 -0.63,-0.63 -1.12,-1.37 -1.47,-2.21 -0.35,-0.84 -0.53,-1.74 -0.53,-2.7l0 -29.99c0,-0.89 -0.31,-1.64 -0.93,-2.26 -0.62,-0.62 -1.38,-0.93 -2.29,-0.93 -0.89,0 -1.63,0.31 -2.24,0.93 -0.61,0.62 -0.91,1.37 -0.91,2.26l0 29.99c0,0.96 -0.18,1.85 -0.53,2.68 -0.35,0.83 -0.85,1.57 -1.51,2.22 -0.65,0.65 -1.4,1.16 -2.24,1.51 -0.84,0.35 -1.74,0.53 -2.7,0.53 -0.96,0 -1.86,-0.18 -2.71,-0.54 -0.85,-0.36 -1.59,-0.86 -2.22,-1.49 -0.65,-0.65 -1.16,-1.4 -1.51,-2.24 -0.35,-0.84 -0.53,-1.74 -0.53,-2.7l0 -29.99c0,-0.89 -0.31,-1.63 -0.93,-2.24 -0.62,-0.61 -1.37,-0.91 -2.26,-0.91 -0.89,0 -1.63,0.3 -2.24,0.91 -0.61,0.61 -0.91,1.35 -0.91,2.24l0 30.23c0,1.82 0.34,3.54 1.02,5.15 0.68,1.61 1.63,3.03 2.87,4.24 1.21,1.24 2.63,2.2 4.26,2.89 1.62,0.69 3.33,1.03 5.13,1.03 2.01,0 3.89,-0.42 5.64,-1.26 1.75,-0.84 3.27,-2.01 4.55,-3.5 1.24,1.5 2.73,2.66 4.47,3.5 1.74,0.84 3.61,1.26 5.62,1.26 1.8,0 3.52,-0.34 5.17,-1.03 1.65,-0.69 3.09,-1.65 4.33,-2.89 1.21,-1.21 2.17,-2.63 2.85,-4.26 0.69,-1.62 1.03,-3.33 1.03,-5.13l0 -11.94c-0.01,0.01 -0.02,0.01 -0.03,0.02l0 -3.67c0,-1.75 0.23,-3.34 0.7,-4.76 0.47,-1.42 1.16,-2.64 2.07,-3.64 0.91,-0.98 1.99,-1.73 3.24,-2.26 1.25,-0.53 2.63,-0.79 4.15,-0.79 1.54,0 2.96,0.28 4.26,0.84 1.3,0.56 2.41,1.37 3.35,2.42 0.93,1.07 1.65,2.33 2.14,3.77 0.49,1.44 0.74,3.01 0.74,4.71l0 25.29c0,0.89 0.31,1.63 0.93,2.22 0.62,0.6 1.37,0.89 2.26,0.89 0.89,0 1.64,-0.3 2.26,-0.89 0.62,-0.6 0.93,-1.34 0.93,-2.22l0 -25.4c0,-2.52 -0.39,-4.87 -1.16,-7.06z"/>
   <path class="fil0" d="M105.92 22.96c0.34,-0.76 0.5,-1.57 0.5,-2.43l0 -12.14c0,-0.39 -0.13,-0.71 -0.4,-0.97 -0.27,-0.26 -0.59,-0.38 -0.95,-0.38 -0.38,0 -0.7,0.13 -0.96,0.38 -0.26,0.26 -0.39,0.58 -0.39,0.97l0 12.06c-0.01,0.47 -0.12,0.93 -0.31,1.36 -0.2,0.44 -0.46,0.83 -0.8,1.16 -0.34,0.34 -0.73,0.6 -1.19,0.79 -0.46,0.19 -0.93,0.28 -1.41,0.28 -0.47,0 -0.92,-0.09 -1.34,-0.26 -0.42,-0.18 -0.8,-0.42 -1.14,-0.75 -0.32,-0.32 -0.59,-0.69 -0.79,-1.1 -0.2,-0.41 -0.32,-0.85 -0.34,-1.32 0,-0.05 0.01,-0.09 0.02,-0.12l0 -0.1 0 -11.98c0,-0.39 -0.14,-0.72 -0.4,-0.98 -0.27,-0.26 -0.59,-0.39 -0.95,-0.39 -0.38,0 -0.69,0.13 -0.95,0.39 -0.26,0.26 -0.38,0.59 -0.38,0.98l0 11.88c0,0.5 -0.09,0.98 -0.27,1.43 -0.18,0.46 -0.44,0.86 -0.78,1.21 -0.35,0.35 -0.75,0.63 -1.19,0.83 -0.44,0.2 -0.92,0.3 -1.41,0.3 -0.47,0 -0.92,-0.09 -1.34,-0.26 -0.42,-0.18 -0.8,-0.42 -1.14,-0.73 -0.7,-0.66 -1.09,-1.45 -1.17,-2.36 0,-0.05 0.01,-0.09 0.02,-0.12l0 -0.12 -0.04 -12.08c-0.01,-0.39 -0.15,-0.71 -0.41,-0.97 -0.26,-0.26 -0.58,-0.38 -0.94,-0.38 -0.38,0 -0.7,0.13 -0.96,0.38 -0.26,0.26 -0.39,0.58 -0.39,0.97l0 12.1c0,0.86 0.16,1.68 0.48,2.44 0.32,0.77 0.78,1.45 1.37,2.04 0.59,0.59 1.27,1.05 2.03,1.37 0.76,0.32 1.57,0.48 2.43,0.48 1,0 1.93,-0.21 2.8,-0.64 0.87,-0.43 1.61,-1.03 2.21,-1.81 0.58,0.77 1.3,1.37 2.16,1.8 0.86,0.43 1.8,0.65 2.81,0.65 0.85,0 1.67,-0.16 2.45,-0.49 0.79,-0.33 1.48,-0.79 2.07,-1.36 0.61,-0.58 1.08,-1.25 1.41,-2.01z"/>
   <path class="fil0" d="M151.48 7.45c-0.27,-0.27 -0.59,-0.4 -0.97,-0.4 -0.36,0 -0.68,0.14 -0.95,0.4 -0.27,0.27 -0.4,0.6 -0.4,0.99l0 8.46c0,0.92 -0.18,1.8 -0.55,2.64 -0.36,0.84 -0.87,1.57 -1.52,2.19 -0.66,0.63 -1.41,1.13 -2.26,1.49 -0.85,0.36 -1.72,0.54 -2.63,0.54 -0.92,0 -1.8,-0.18 -2.65,-0.54 -0.85,-0.36 -1.6,-0.85 -2.24,-1.49 -0.65,-0.62 -1.15,-1.35 -1.52,-2.19 -0.36,-0.84 -0.55,-1.72 -0.55,-2.64l0 -8.46c0,-0.39 -0.14,-0.72 -0.4,-0.99 -0.27,-0.27 -0.59,-0.4 -0.95,-0.4 -0.39,0 -0.72,0.14 -0.99,0.4 -0.27,0.27 -0.4,0.6 -0.4,0.99l0 8.36c0,1.32 0.25,2.57 0.75,3.74 0.5,1.17 1.2,2.21 2.1,3.11 0.89,0.89 1.93,1.58 3.11,2.08 1.19,0.5 2.43,0.75 3.74,0.75 1.37,0 2.65,-0.31 3.84,-0.92 1.18,-0.61 2.22,-1.45 3.11,-2.52l0 8.2c0,0.39 0.13,0.71 0.38,0.97 0.26,0.26 0.57,0.38 0.95,0.38 0.39,0 0.72,-0.13 0.99,-0.38 0.27,-0.26 0.4,-0.58 0.4,-0.97l0 -22.81c0,-0.39 -0.14,-0.72 -0.4,-0.99z"/>
   <path class="fil0" d="M99.18 31.73c-0.84,-0.86 -1.81,-1.54 -2.93,-2.02 -1.12,-0.49 -2.32,-0.73 -3.6,-0.73 -1.28,0 -2.48,0.24 -3.61,0.73 -1.12,0.48 -2.1,1.16 -2.94,2.04 -0.84,0.88 -1.48,1.89 -1.94,3.05 -0.46,1.16 -0.69,2.38 -0.69,3.66l0 8.69c0,0.38 0.14,0.69 0.41,0.95 0.28,0.26 0.6,0.38 0.98,0.38 0.39,0 0.71,-0.12 0.95,-0.37 0.24,-0.25 0.36,-0.57 0.36,-0.96l0 -8.67c0,-0.93 0.16,-1.81 0.49,-2.65 0.32,-0.83 0.77,-1.56 1.35,-2.16 0.59,-0.62 1.28,-1.1 2.07,-1.44 0.79,-0.34 1.64,-0.52 2.56,-0.52 0.92,0 1.77,0.17 2.56,0.53 0.79,0.35 1.48,0.84 2.07,1.47 0.57,0.62 1.01,1.35 1.32,2.18 0.32,0.84 0.47,1.72 0.47,2.65l0 8.61c0,0.39 0.13,0.71 0.39,0.96 0.26,0.25 0.58,0.37 0.96,0.37 0.39,0 0.71,-0.12 0.96,-0.37 0.25,-0.25 0.37,-0.57 0.37,-0.96l0 -8.71c0,-1.29 -0.23,-2.52 -0.68,-3.67 -0.45,-1.15 -1.09,-2.16 -1.91,-3.04z"/>
   <path class="fil0" d="M120.62 41.64c-0.36,0.87 -0.87,1.63 -1.52,2.29 -0.66,0.67 -1.43,1.19 -2.3,1.57 -0.88,0.37 -1.81,0.56 -2.81,0.56 -0.98,0 -1.91,-0.18 -2.78,-0.56 -0.87,-0.37 -1.63,-0.89 -2.29,-1.57 -0.66,-0.66 -1.18,-1.42 -1.55,-2.29 -0.37,-0.87 -0.55,-1.78 -0.55,-2.74 0,-0.97 0.19,-1.89 0.55,-2.77 0.37,-0.87 0.89,-1.64 1.55,-2.3 0.66,-0.66 1.42,-1.17 2.29,-1.55 0.87,-0.37 1.79,-0.56 2.78,-0.56 0.98,0 1.92,0.19 2.8,0.56 0.88,0.37 1.65,0.89 2.31,1.55 0.65,0.66 1.15,1.43 1.52,2.3 0.36,0.88 0.55,1.8 0.55,2.77 0,0.96 -0.18,1.87 -0.55,2.74zm0.36 -9.75c-0.9,-0.9 -1.96,-1.61 -3.16,-2.12 -1.21,-0.51 -2.48,-0.77 -3.83,-0.77 -1.33,0 -2.6,0.25 -3.79,0.76 -1.19,0.5 -2.25,1.22 -3.16,2.13 -0.92,0.9 -1.63,1.96 -2.14,3.17 -0.51,1.21 -0.77,2.49 -0.77,3.84 0,1.33 0.26,2.6 0.77,3.8 0.51,1.2 1.23,2.25 2.14,3.15 0.92,0.92 1.97,1.63 3.16,2.13 1.19,0.51 2.45,0.76 3.79,0.76 1.35,0 2.62,-0.26 3.83,-0.77 1.21,-0.51 2.26,-1.22 3.16,-2.12 0.9,-0.9 1.61,-1.95 2.11,-3.15 0.5,-1.2 0.76,-2.46 0.76,-3.8 0,-1.35 -0.25,-2.62 -0.76,-3.83 -0.51,-1.21 -1.21,-2.27 -2.11,-3.18z"/>
   <path class="fil0" d="M141.58 43.89c-0.22,0 -0.4,0.04 -0.55,0.11 -0.15,0.07 -0.32,0.19 -0.5,0.33 -0.67,0.59 -1.39,1.03 -2.16,1.3 -0.77,0.28 -1.6,0.41 -2.51,0.41 -1,0 -1.93,-0.18 -2.8,-0.54 -0.87,-0.36 -1.63,-0.85 -2.29,-1.49 -0.66,-0.63 -1.17,-1.37 -1.54,-2.22 -0.36,-0.85 -0.55,-1.76 -0.55,-2.73l0 -7.25 8.91 0c0.39,0 0.72,-0.12 0.98,-0.37 0.26,-0.25 0.39,-0.56 0.39,-0.92 0,-0.38 -0.14,-0.7 -0.4,-0.97 -0.27,-0.27 -0.59,-0.4 -0.97,-0.4l-8.91 0 0 -4.63c0,-0.13 -0.02,-0.24 -0.05,-0.36l0 -7.62c0,-1.29 -0.22,-2.52 -0.65,-3.68 -0.43,-1.16 -1.04,-2.17 -1.82,-3.03 -0.79,-0.87 -1.73,-1.55 -2.82,-2.03 -1.08,-0.48 -2.26,-0.72 -3.52,-0.72 -1.39,0 -2.7,0.34 -3.94,1.03 -1.17,0.67 -2.18,1.59 -3.01,2.75l0 -9.49c0,-0.39 -0.13,-0.72 -0.38,-0.99 -0.26,-0.27 -0.58,-0.4 -0.97,-0.4 -0.36,0 -0.68,0.13 -0.95,0.4 -0.27,0.27 -0.4,0.6 -0.4,0.99l0 23.84c0,0.38 0.13,0.7 0.39,0.96 0.26,0.26 0.58,0.39 0.96,0.39 0.38,0 0.7,-0.13 0.96,-0.39 0.26,-0.26 0.39,-0.58 0.39,-0.96l0 -8.73c0,-0.92 0.19,-1.79 0.56,-2.62 0.37,-0.83 0.88,-1.55 1.53,-2.17 0.65,-0.62 1.39,-1.1 2.23,-1.43 0.84,-0.34 1.72,-0.5 2.64,-0.5 0.9,0 1.73,0.18 2.49,0.52 0.76,0.35 1.42,0.84 1.97,1.46 0.53,0.62 0.93,1.34 1.22,2.17 0.29,0.83 0.43,1.71 0.43,2.64l0 7.85c-0,0.04 -0.01,0.08 -0.01,0.12l0 14.53c0,1.35 0.26,2.61 0.77,3.79 0.51,1.18 1.23,2.21 2.14,3.1 0.9,0.88 1.96,1.56 3.16,2.05 1.21,0.49 2.49,0.74 3.85,0.74 1.25,0 2.42,-0.21 3.5,-0.62 1.08,-0.41 2.05,-1.02 2.9,-1.83 0.16,-0.15 0.29,-0.32 0.37,-0.53 0.09,-0.2 0.13,-0.4 0.13,-0.61 0,-0.35 -0.12,-0.65 -0.35,-0.9 -0.24,-0.25 -0.52,-0.37 -0.84,-0.37z"/>
   <path class="fil0" d="M150.36 47.75c-0.95,-0 -1.72,-0.77 -1.72,-1.72 0,-0.95 0.77,-1.72 1.72,-1.72 0.95,0 1.72,0.77 1.72,1.72 -0,0.95 -0.77,1.72 -1.72,1.72zm2.15 -1.93c-0.04,-0.42 -0.19,-0.79 -0.45,-1.12 -0.33,-0.42 -0.76,-0.68 -1.29,-0.79 -0.1,-0.02 -0.2,-0.03 -0.31,-0.04 -0.01,-0 -0.01,-0 -0.02,-0l-0.17 0c-0.04,0 -0.08,0.01 -0.12,0.01 -0.18,0.02 -0.35,0.05 -0.51,0.11 -0.66,0.23 -1.17,0.77 -1.36,1.45 -0.05,0.16 -0.07,0.32 -0.08,0.48 0,0.01 -0,0.01 -0,0.02l0 0.18c0,0.03 0,0.05 0.01,0.08 0.03,0.42 0.18,0.81 0.44,1.14 0.23,0.3 0.52,0.53 0.87,0.68 0.19,0.08 0.39,0.14 0.6,0.16 0.49,0.05 0.94,-0.04 1.36,-0.3 0.5,-0.31 0.82,-0.75 0.98,-1.31 0.06,-0.24 0.08,-0.49 0.06,-0.74z"/>
   <path class="fil0" d="M150.57 45.67c-0.02,0.09 -0.08,0.15 -0.17,0.17 -0.04,0.01 -0.07,0.02 -0.11,0.02 -0.1,0 -0.19,0 -0.29,0l0 -0.58c0.13,0.01 0.25,-0.01 0.37,0.01 0.07,0.01 0.13,0.04 0.17,0.11 0.02,0.04 0.03,0.07 0.04,0.12 0.01,0.05 0,0.11 -0.01,0.16zm0.61 0.89c-0.05,-0.1 -0.09,-0.19 -0.16,-0.28 -0.06,-0.09 -0.14,-0.16 -0.24,-0.2 -0.01,-0.01 -0.03,-0.01 -0.04,-0.01 0.04,-0.02 0.08,-0.03 0.12,-0.05 0.14,-0.07 0.24,-0.17 0.28,-0.32 0.03,-0.11 0.03,-0.23 0.02,-0.34 -0.02,-0.1 -0.05,-0.2 -0.13,-0.28 -0.07,-0.07 -0.15,-0.12 -0.24,-0.15 -0.14,-0.05 -0.29,-0.06 -0.44,-0.06 -0.31,-0 -0.61,-0 -0.92,-0 -0,0 -0.01,0 -0.02,0l0 2.26 0.58 0 0 -0.86c0.08,0 0.16,0 0.24,0.01 0.09,0.01 0.17,0.05 0.22,0.13 0.03,0.04 0.06,0.09 0.08,0.13 0.09,0.19 0.19,0.38 0.28,0.57 0.01,0.01 0.01,0.02 0.03,0.02 0.19,-0 0.39,-0 0.58,-0l0.02 0c-0,-0.01 -0.01,-0.01 -0.01,-0.02 -0.09,-0.18 -0.18,-0.36 -0.27,-0.54z"/>
  </g>
 </g>
</svg>
